<svg width="61" height="34" viewBox="0 0 61 34" fill="none" xmlns="http://www.w3.org/2000/svg">
<path d="M25.609 20.7051C25.609 20.7051 25.609 20.7596 25.5545 20.8686C24.0833 24.0833 20.8141 26.3173 17.0545 26.3173C16.5096 26.3173 16.0192 26.3173 15.5288 26.2083C11.4968 25.5545 8.28205 22.2853 7.79167 18.1987C7.73718 17.7628 7.73718 17.3814 7.73718 17C7.73718 14.4936 8.71795 12.2051 10.3526 10.516C12.0417 8.77244 14.4391 7.68269 17.0545 7.68269C18.2532 7.68269 19.3974 7.90064 20.4327 8.33654C22.5032 9.15385 24.2468 10.734 25.2821 12.6955C25.9904 9.86218 27.2981 7.2468 29.1506 5.06731C26.2628 2.17949 22.3397 0.272436 17.9808 0.0544872C17.7083 0 17.3814 0 17.0545 0C10.3526 0 4.57692 3.8141 1.79808 9.42628C1.14423 10.7885 0.653846 12.2596 0.326923 13.7853C0.108974 14.8205 0 15.9103 0 17C0 23.593 3.8141 29.3141 9.31731 32.1474C11.6603 33.3462 14.2756 34 17.0545 34C19.8333 34 22.4487 33.3462 24.7917 32.1474C26.851 31.0636 28.6708 29.5725 30.1398 27.7853C32.955 31.2223 37.0926 33.5339 41.7917 33.9455C42.3365 34 42.8269 34 43.3173 34C52.7436 34 60.3718 26.3718 60.3718 17L60.4263 17.0545C60.4263 16.8836 60.4114 16.7127 60.3972 16.5496C60.3842 16.4006 60.3718 16.2582 60.3718 16.1282C60.3173 15.3654 60.2083 14.6026 60.0994 13.8942C58.7917 6.91987 53.1795 1.36218 46.0962 0.217949C45.1699 0.0544872 44.2436 0 43.3173 0C38.0117 0 33.2757 2.4339 30.149 6.23297L30.1315 6.21143C27.734 9.15373 26.2629 12.9134 26.2629 16.9999L26.2628 17.0545C26.2628 17.2976 26.2628 17.5577 26.2723 17.8159C26.2536 18.0005 26.231 18.1813 26.2084 18.3621H26.3108C26.3129 18.3804 26.315 18.3986 26.3173 18.4167H47.3494V15.1474H36.2885C35.4167 15.1474 34.7083 14.4391 34.7083 13.5673L34.6538 13.6218C35.9071 10.4071 38.9038 8.0641 42.5 7.73718C42.7724 7.68269 43.0449 7.68269 43.3173 7.68269C48.3846 7.68269 52.5256 11.7692 52.6346 16.8365V17.5994C52.3077 22.4487 48.2212 26.3173 43.3173 26.3173H42.8269C39.1763 26.0994 36.125 23.8654 34.7628 20.7051H25.609Z" fill="#4CC8AF"/>
</svg>
