<svg width="385" height="61" viewBox="0 0 385 61" fill="none" xmlns="http://www.w3.org/2000/svg">
<path d="M47.7502 44.773C45.4229 47.6044 42.5398 49.9667 39.2772 51.6838C35.5653 53.583 31.4218 54.6188 27.0193 54.6188C22.6168 54.6188 18.4732 53.583 14.7613 51.6838C6.04265 47.195 0 38.131 0 27.6859C0 25.9594 0.172647 24.2329 0.517941 22.5928C1.03588 20.1757 1.8128 17.845 2.84868 15.6869C7.25118 6.79558 16.4015 0.75293 27.0193 0.75293C27.5372 0.75293 28.0552 0.75293 28.4868 0.839253C35.3927 1.18455 41.608 4.20587 46.1831 8.78102C43.2481 12.234 41.1763 16.3775 40.0541 20.8663C38.414 17.7587 35.6516 15.2553 32.3713 13.9604C30.7312 13.2698 28.9184 12.9246 27.0193 12.9246C22.8757 12.9246 19.0775 14.651 16.4015 17.4134C13.8118 20.0894 12.2579 23.715 12.2579 27.6859C12.2579 28.2902 12.2579 28.8944 12.3443 29.585C13.1212 36.0593 18.2143 41.2387 24.6022 42.2746C25.3791 42.4472 26.156 42.4472 27.0193 42.4472C32.9756 42.4472 38.155 38.908 40.4858 33.8149C40.5721 33.6422 40.5721 33.5559 40.5721 33.5559H55.0744C57.2325 38.5627 62.0666 42.1019 67.8503 42.4472H68.6272C76.3963 42.4472 82.8706 36.3182 83.3885 28.6354V27.4269C83.2159 19.3988 76.6553 12.9246 68.6272 12.9246C68.1956 12.9246 67.764 12.9246 67.3323 13.0109C61.635 13.5288 56.8872 17.2407 54.9017 22.3338L54.9881 22.2475C54.9881 23.6287 56.1103 24.7509 57.4914 24.7509H75.0151V29.9303H41.6942C41.6079 29.2397 41.6079 28.4628 41.6079 27.7722C41.6079 12.9246 53.6932 0.75293 68.6272 0.75293C70.0947 0.75293 71.5622 0.839253 73.0297 1.09822C84.2518 2.91102 93.1431 11.716 95.2149 22.7654C95.3875 23.8876 95.5602 25.0962 95.6465 26.3047C95.6465 26.5107 95.6661 26.7363 95.6867 26.9721C95.7092 27.2306 95.7328 27.5014 95.7328 27.7722L95.6465 27.6859C95.6465 42.5335 83.5612 54.6188 68.6272 54.6188C67.8503 54.6188 67.0734 54.6188 66.2101 54.5325C58.7655 53.8804 52.2102 50.2181 47.7502 44.773Z" fill="white"/>
<path d="M124.358 11.3108C124.949 11.8047 125.28 12.4925 125.35 13.3744H132.388C132.379 11.6018 131.938 10.0541 131.065 8.73126C130.201 7.3996 128.97 6.36778 127.374 5.63581C125.778 4.90384 123.886 4.53786 121.699 4.53786C119.556 4.53786 117.656 4.89943 115.998 5.62258C114.349 6.34574 113.057 7.3555 112.122 8.65189C111.196 9.93945 110.737 11.4431 110.746 13.1628C110.737 15.2793 111.421 16.9505 112.797 18.1763C114.181 19.3933 116.073 20.262 118.472 20.7823L121.17 21.3644C122.175 21.5848 122.974 21.823 123.564 22.0787C124.155 22.3256 124.579 22.6078 124.834 22.9253C125.099 23.234 125.236 23.5956 125.244 24.0101C125.236 24.451 125.095 24.8434 124.821 25.1874C124.548 25.5313 124.147 25.8003 123.617 25.9943C123.088 26.1883 122.431 26.2853 121.646 26.2853C120.712 26.2853 119.905 26.1398 119.226 25.8488C118.555 25.5578 118.035 25.1301 117.665 24.5656C117.294 24.0012 117.087 23.3045 117.043 22.4756H110.058C110.067 24.742 110.552 26.6028 111.513 28.0579C112.483 29.5042 113.842 30.5757 115.588 31.2724C117.343 31.9691 119.398 32.3175 121.752 32.3175C124.045 32.3175 126.007 31.9956 127.639 31.3518C129.279 30.708 130.54 29.7688 131.422 28.5342C132.304 27.2995 132.749 25.7915 132.758 24.0101C132.749 22.9782 132.582 22.0258 132.256 21.1527C131.938 20.2796 131.44 19.4948 130.761 18.7981C130.082 18.0926 129.209 17.4796 128.141 16.9593C127.074 16.439 125.791 16.0201 124.292 15.7026L122.07 15.2264C121.426 15.0941 120.87 14.9442 120.403 14.7766C119.935 14.6091 119.552 14.4239 119.252 14.221C118.952 14.0094 118.732 13.7757 118.591 13.5199C118.458 13.2554 118.401 12.9599 118.419 12.6336C118.427 12.2368 118.546 11.884 118.776 11.5754C119.005 11.2667 119.358 11.0242 119.834 10.8478C120.319 10.6626 120.941 10.57 121.699 10.57C122.89 10.57 123.776 10.8169 124.358 11.3108Z" fill="white"/>
<path fill-rule="evenodd" clip-rule="evenodd" d="M138.785 27.3833C139.623 28.9531 140.827 30.1789 142.397 31.0608C143.966 31.9339 145.854 32.3704 148.058 32.3704C150.263 32.3704 152.15 31.9339 153.72 31.0608C155.29 30.1789 156.494 28.9531 157.332 27.3833C158.169 25.8047 158.588 23.9748 158.588 21.8935C158.588 19.8122 158.169 17.9867 157.332 16.417C156.494 14.8384 155.29 13.6125 153.72 12.7395C152.15 11.8576 150.263 11.4166 148.058 11.4166C145.854 11.4166 143.966 11.8576 142.397 12.7395C140.827 13.6125 139.623 14.8384 138.785 16.417C137.948 17.9867 137.529 19.8122 137.529 21.8935C137.529 23.9748 137.948 25.8047 138.785 27.3833ZM149.712 26.3515C149.262 26.766 148.729 26.9732 148.111 26.9732C147.459 26.9732 146.899 26.766 146.431 26.3515C145.964 25.937 145.607 25.3461 145.36 24.5789C145.113 23.8116 144.989 22.8989 144.989 21.8406C144.989 20.7735 145.113 19.8607 145.36 19.1023C145.607 18.3351 145.964 17.7442 146.431 17.3297C146.899 16.9152 147.459 16.708 148.111 16.708C148.729 16.708 149.262 16.9152 149.712 17.3297C150.162 17.7442 150.51 18.3351 150.757 19.1023C151.004 19.8607 151.127 20.7735 151.127 21.8406C151.127 22.8989 151.004 23.8116 150.757 24.5789C150.51 25.3461 150.162 25.937 149.712 26.3515Z" fill="white"/>
<path d="M176.329 16.9725V11.6812H172.625V10.7817C172.625 10.3054 172.744 9.92181 172.982 9.63079C173.22 9.33976 173.683 9.19425 174.371 9.19425C174.636 9.19425 174.945 9.22071 175.297 9.27362C175.65 9.31772 175.959 9.37945 176.223 9.45882L177.282 4.22037C176.858 4.11455 176.206 3.99108 175.324 3.84998C174.451 3.70888 173.551 3.63833 172.625 3.63833C171.144 3.63833 169.856 3.91171 168.762 4.45849C167.669 5.00526 166.822 5.82983 166.223 6.9322C165.623 8.03456 165.323 9.42354 165.323 11.0991V11.6812H162.73V16.9725H165.323V32H172.625V16.9725H176.329Z" fill="white"/>
<path d="M193.872 16.9725V11.6812H190.379V6.81314H183.077V11.6812H180.484V16.9725H183.077V26.1531C183.06 27.5729 183.337 28.7546 183.911 29.6983C184.484 30.6419 185.339 31.3342 186.477 31.7751C187.614 32.2072 189.021 32.3792 190.697 32.291C191.526 32.2469 192.24 32.1543 192.84 32.0132C193.448 31.8721 193.916 31.7531 194.242 31.6561L193.184 26.5234C193.043 26.5587 192.822 26.6028 192.522 26.6557C192.231 26.7086 191.975 26.7351 191.755 26.7351C191.437 26.7351 191.177 26.691 190.974 26.6028C190.772 26.5058 190.622 26.3647 190.525 26.1795C190.428 25.9855 190.379 25.7474 190.379 25.4652V16.9725H193.872Z" fill="white"/>
<path d="M199.79 4.90825V32H219.262V26.0737H207.144V21.4173H218.309V15.491H207.144V10.8346H219.315V4.90825H199.79Z" fill="white"/>
<path d="M234.936 17.9779L231.972 11.6812H224.67L230.068 21.8406L224.3 32H231.602L234.936 25.5445L238.375 32H245.571L239.857 21.8406L245.307 11.6812H238.058L234.936 17.9779Z" fill="white"/>
<path fill-rule="evenodd" clip-rule="evenodd" d="M250.51 11.6812V39.6196H257.812V28.6664H257.918C258.2 29.3543 258.602 29.9716 259.122 30.5184C259.651 31.0564 260.286 31.4841 261.027 31.8016C261.777 32.1102 262.628 32.2646 263.58 32.2646C265.026 32.2646 266.354 31.8854 267.562 31.1269C268.779 30.3685 269.749 29.2176 270.472 27.6743C271.204 26.131 271.57 24.1864 271.57 21.8406C271.57 19.3889 271.186 17.3959 270.419 15.8614C269.661 14.3269 268.673 13.2025 267.456 12.4881C266.248 11.7738 264.973 11.4166 263.633 11.4166C262.628 11.4166 261.746 11.593 260.987 11.9458C260.229 12.2897 259.594 12.7527 259.082 13.3347C258.571 13.908 258.183 14.5385 257.918 15.2264H257.759V11.6812H250.51ZM258.037 24.4069C257.782 23.6838 257.654 22.8283 257.654 21.8406C257.654 20.8352 257.782 19.9754 258.037 19.2611C258.302 18.5379 258.672 17.9867 259.148 17.6075C259.634 17.2195 260.211 17.0255 260.881 17.0255C261.552 17.0255 262.12 17.2195 262.588 17.6075C263.064 17.9867 263.426 18.5379 263.673 19.2611C263.928 19.9754 264.056 20.8352 264.056 21.8406C264.056 22.846 263.928 23.7102 263.673 24.4334C263.426 25.1477 263.064 25.6989 262.588 26.0869C262.12 26.4661 261.552 26.6557 260.881 26.6557C260.211 26.6557 259.634 26.4617 259.148 26.0737C258.672 25.6768 258.302 25.1212 258.037 24.4069Z" fill="white"/>
<path fill-rule="evenodd" clip-rule="evenodd" d="M281.364 31.1269C282.934 31.9559 284.803 32.3704 286.973 32.3704C288.851 32.3704 290.491 32.0882 291.894 31.5238C293.305 30.9505 294.438 30.148 295.293 29.1162C296.149 28.0756 296.691 26.8497 296.92 25.4387H290.253C290.112 25.8179 289.892 26.1442 289.592 26.4176C289.292 26.6822 288.93 26.885 288.507 27.0261C288.093 27.1672 287.634 27.2378 287.131 27.2378C286.408 27.2378 285.791 27.0923 285.279 26.8012C284.768 26.5102 284.375 26.109 284.102 25.5975C283.829 25.086 283.692 24.5039 283.692 23.8513V23.5338H296.92V21.8406C296.92 20.2267 296.682 18.776 296.206 17.4885C295.73 16.2009 295.051 15.1073 294.169 14.2078C293.287 13.2995 292.224 12.6072 290.981 12.131C289.737 11.6547 288.348 11.4166 286.814 11.4166C284.715 11.4166 282.894 11.8532 281.351 12.7262C279.807 13.5993 278.612 14.8207 277.766 16.3905C276.919 17.9603 276.496 19.7946 276.496 21.8935C276.496 24.0806 276.915 25.959 277.752 27.5288C278.599 29.0898 279.803 30.2891 281.364 31.1269ZM283.692 19.5124C283.71 18.9215 283.864 18.4056 284.155 17.9647C284.455 17.5237 284.852 17.1798 285.346 16.9329C285.839 16.6771 286.382 16.5492 286.973 16.5492C287.581 16.5492 288.124 16.6771 288.6 16.9329C289.085 17.1798 289.468 17.5281 289.751 17.9779C290.042 18.4188 290.192 18.9303 290.2 19.5124H283.692Z" fill="white"/>
<path d="M309.598 11.6812H302.508V32H309.81V21.4173C309.81 20.6412 309.973 19.9666 310.299 19.3933C310.626 18.8113 311.071 18.3615 311.635 18.044C312.209 17.7177 312.852 17.5546 313.567 17.5546C313.946 17.5546 314.4 17.5855 314.929 17.6472C315.458 17.7089 315.904 17.8015 316.265 17.925V11.6944C315.974 11.6062 315.67 11.5401 315.352 11.496C315.044 11.4431 314.731 11.4166 314.413 11.4166C313.329 11.4166 312.38 11.7473 311.569 12.4088C310.767 13.0702 310.18 14.1152 309.81 15.5439H309.598V11.6812Z" fill="white"/>
<path d="M334.221 16.9725V11.6812H330.729V6.81314H323.427V11.6812H320.834V16.9725H323.427V26.1531C323.409 27.5729 323.687 28.7546 324.26 29.6983C324.833 30.6419 325.689 31.3342 326.826 31.7751C327.964 32.2072 329.371 32.3792 331.046 32.291C331.875 32.2469 332.59 32.1543 333.189 32.0132C333.798 31.8721 334.265 31.7531 334.591 31.6561L333.533 26.5234C333.392 26.5587 333.172 26.6028 332.872 26.6557C332.581 26.7086 332.325 26.7351 332.104 26.7351C331.787 26.7351 331.527 26.691 331.324 26.6028C331.121 26.5058 330.971 26.3647 330.874 26.1795C330.777 25.9855 330.729 25.7474 330.729 25.4652V16.9725H334.221Z" fill="white"/>
<path d="M116.148 43.3238H121.724V44.2648H116.183C115.567 44.2648 115.073 44.4565 114.701 44.8399C114.329 45.2117 114.144 45.6474 114.144 46.147C114.144 46.542 114.277 46.9138 114.544 47.2623C114.812 47.5992 115.183 47.8316 115.66 47.9594L120.086 49.1096C120.853 49.3071 121.44 49.6731 121.846 50.2075C122.265 50.742 122.474 51.3345 122.474 51.9851C122.474 52.7984 122.183 53.5071 121.602 54.1112C121.033 54.7037 120.266 55 119.302 55H113.481V54.0415H119.267C119.918 54.0415 120.435 53.844 120.818 53.449C121.213 53.0423 121.411 52.566 121.411 52.0199C121.411 51.5901 121.265 51.1893 120.975 50.8175C120.696 50.4457 120.307 50.1959 119.807 50.0681L115.363 48.9179C114.643 48.732 114.085 48.3893 113.69 47.8897C113.307 47.3901 113.115 46.8266 113.115 46.1993C113.115 45.4208 113.388 44.747 113.934 44.1777C114.48 43.6084 115.218 43.3238 116.148 43.3238ZM128.942 55.2091C127.618 55.2091 126.526 54.7734 125.666 53.9021C124.818 53.0307 124.394 51.9619 124.394 50.6955C124.394 49.4407 124.818 48.3835 125.666 47.5237C126.526 46.664 127.618 46.2341 128.942 46.2341C130.244 46.2341 131.318 46.664 132.166 47.5237C133.015 48.3835 133.439 49.4407 133.439 50.6955C133.439 51.9619 133.015 53.0307 132.166 53.9021C131.318 54.7734 130.244 55.2091 128.942 55.2091ZM128.942 54.3029C129.976 54.3029 130.825 53.9544 131.487 53.2573C132.149 52.5602 132.48 51.7063 132.48 50.6955C132.48 49.6963 132.149 48.854 131.487 48.1685C130.825 47.4831 129.976 47.1403 128.942 47.1403C127.885 47.1403 127.02 47.4831 126.346 48.1685C125.683 48.854 125.352 49.6963 125.352 50.6955C125.352 51.7063 125.689 52.5602 126.363 53.2573C127.037 53.9544 127.897 54.3029 128.942 54.3029ZM141.563 43.3761H138.338C138.013 43.3761 137.758 43.469 137.572 43.6549C137.386 43.8292 137.293 44.0848 137.293 44.4217V46.4258H141.563V47.3495H137.293V55H136.334V47.3495H134.766V46.4258H136.334V44.3346C136.334 43.7536 136.503 43.2947 136.84 42.9578C137.188 42.6209 137.659 42.4524 138.251 42.4524H141.563V43.3761ZM149.391 46.4258V47.3495H145.121V53.0133C145.121 53.3386 145.214 53.5942 145.4 53.7801C145.586 53.966 145.842 54.0589 146.167 54.0589H149.391V55H146.063C145.447 55 144.976 54.8373 144.651 54.512C144.326 54.1867 144.163 53.722 144.163 53.1179V47.3495H142.595V46.4258H144.163V43.3238H145.121V46.4258H149.391ZM159.708 53.6407L162.2 46.4258H163.228L160.179 55H159.22L156.937 47.7677L154.619 55H153.661L150.629 46.4258H151.657L154.149 53.6581H154.166L156.432 46.4258H157.408L159.708 53.6407ZM172.406 48.2382V46.4258H173.364V55H172.406V53.1353H172.371C172.011 53.7627 171.517 54.2681 170.89 54.6515C170.262 55.0232 169.553 55.2091 168.763 55.2091C167.485 55.2207 166.428 54.7967 165.592 53.9369C164.767 53.0656 164.354 51.9851 164.354 50.6955C164.354 49.4291 164.767 48.366 165.592 47.5063C166.428 46.6466 167.485 46.2225 168.763 46.2341C169.553 46.2341 170.262 46.4142 170.89 46.7744C171.517 47.1345 172.011 47.6225 172.371 48.2382H172.406ZM168.885 54.2855C169.919 54.2855 170.762 53.9427 171.412 53.2573C172.075 52.5602 172.406 51.7063 172.406 50.6955C172.406 49.6963 172.075 48.854 171.412 48.1685C170.762 47.4831 169.919 47.1403 168.885 47.1403C167.84 47.1403 166.98 47.4831 166.306 48.1685C165.644 48.854 165.313 49.6963 165.313 50.6955C165.313 51.7063 165.644 52.5602 166.306 53.2573C166.98 53.9427 167.84 54.2855 168.885 54.2855ZM180.705 46.4258H182.065V47.3843H180.583C179.573 47.3843 178.777 47.6922 178.196 48.308C177.627 48.9237 177.342 49.8125 177.342 50.9743V55H176.383V46.4258H177.325V48.3951H177.359C177.894 47.0822 179.009 46.4258 180.705 46.4258ZM187.347 46.2341C188.66 46.2341 189.723 46.6814 190.537 47.576C191.35 48.4706 191.733 49.6266 191.687 51.044H183.932C183.967 51.9619 184.309 52.7345 184.96 53.3618C185.622 53.9776 186.441 54.2855 187.417 54.2855C188.138 54.2855 188.777 54.1112 189.334 53.7627C189.892 53.4141 190.293 52.9494 190.537 52.3685H191.547C191.245 53.2282 190.717 53.9195 189.962 54.4423C189.218 54.9535 188.352 55.2091 187.365 55.2091C186.075 55.2091 185.018 54.7793 184.193 53.9195C183.368 53.0598 182.956 52.0025 182.956 50.7478C182.956 49.4814 183.362 48.4125 184.176 47.5412C185.001 46.6698 186.058 46.2341 187.347 46.2341ZM189.613 47.9943C189.009 47.425 188.248 47.1403 187.33 47.1403C186.412 47.1403 185.645 47.4308 185.03 48.0117C184.414 48.581 184.054 49.3013 183.949 50.1727H190.676C190.583 49.2897 190.229 48.5636 189.613 47.9943ZM202.482 51.7063L205.671 55H204.381L201.732 52.2814L198.717 54.5295C197.881 55.0988 197.073 55.3195 196.295 55.1917C195.517 55.0639 194.907 54.6689 194.465 54.0066C194.047 53.4374 193.907 52.7693 194.047 52.0025C194.198 51.2241 194.628 50.5677 195.336 50.0332L197.776 48.2034L196.103 46.4781C195.72 46.0134 195.522 45.5486 195.511 45.0839C195.499 44.6192 195.679 44.2126 196.051 43.864C196.434 43.5039 196.922 43.3238 197.515 43.3238H202.377V44.2474H197.463C196.998 44.2474 196.69 44.4333 196.539 44.8051C196.388 45.1652 196.463 45.5022 196.766 45.8159L201.854 51.0615L204.991 48.7262V49.8415L202.482 51.7063ZM198.212 53.7627L201.105 51.6191L198.404 48.8482L195.946 50.6955C195.447 51.0673 195.139 51.5204 195.023 52.0548C194.918 52.5776 195.005 53.0307 195.284 53.4141C195.575 53.8788 195.981 54.1577 196.504 54.2506C197.039 54.3436 197.608 54.1809 198.212 53.7627ZM221.013 43.3238V55H220.037V44.8225L215.331 55H214.46L209.772 44.8748V55H208.796V43.3238H210.121L214.913 53.7104L219.723 43.3238H221.013ZM227.923 55.2091C226.599 55.2091 225.507 54.7734 224.647 53.9021C223.799 53.0307 223.375 51.9619 223.375 50.6955C223.375 49.4407 223.799 48.3835 224.647 47.5237C225.507 46.664 226.599 46.2341 227.923 46.2341C229.225 46.2341 230.299 46.664 231.147 47.5237C231.996 48.3835 232.42 49.4407 232.42 50.6955C232.42 51.9619 231.996 53.0307 231.147 53.9021C230.299 54.7734 229.225 55.2091 227.923 55.2091ZM227.923 54.3029C228.957 54.3029 229.806 53.9544 230.468 53.2573C231.13 52.5602 231.461 51.7063 231.461 50.6955C231.461 49.6963 231.13 48.854 230.468 48.1685C229.806 47.4831 228.957 47.1403 227.923 47.1403C226.866 47.1403 226.001 47.4831 225.327 48.1685C224.665 48.854 224.333 49.6963 224.333 50.6955C224.333 51.7063 224.67 52.5602 225.344 53.2573C226.018 53.9544 226.878 54.3029 227.923 54.3029ZM239.342 46.2167C240.608 46.2167 241.659 46.6524 242.496 47.5237C243.332 48.3835 243.751 49.4523 243.751 50.7303C243.751 52.0083 243.332 53.0772 242.496 53.9369C241.671 54.7851 240.614 55.2033 239.324 55.1917C238.546 55.1917 237.837 55.0116 237.198 54.6515C236.571 54.2797 236.083 53.7917 235.734 53.1876H235.682V55H234.741V42.4524H235.682V48.2905H235.734C236.083 47.6631 236.571 47.1636 237.198 46.7918C237.825 46.42 238.54 46.2283 239.342 46.2167ZM239.202 54.2855C240.259 54.2855 241.119 53.9427 241.781 53.2573C242.455 52.5718 242.792 51.7295 242.792 50.7303C242.792 49.7196 242.455 48.8714 241.781 48.186C241.119 47.4889 240.259 47.1403 239.202 47.1403C238.168 47.1403 237.32 47.4889 236.658 48.186C236.007 48.8831 235.682 49.7312 235.682 50.7303C235.682 51.7295 236.007 52.5718 236.658 53.2573C237.32 53.9427 238.168 54.2855 239.202 54.2855ZM246.177 42.4524H247.136V44.8748H246.177V42.4524ZM246.177 46.4258H247.136V55H246.177V46.4258ZM250.073 53.1004V42.4524H251.032V53.0133C251.032 53.722 251.38 54.0764 252.077 54.0764H253.593V55H251.99C251.374 55 250.898 54.8373 250.561 54.512C250.236 54.1867 250.073 53.7162 250.073 53.1004ZM259.116 46.2341C260.428 46.2341 261.491 46.6814 262.305 47.576C263.118 48.4706 263.501 49.6266 263.455 51.044H255.7C255.735 51.9619 256.077 52.7345 256.728 53.3618C257.39 53.9776 258.209 54.2855 259.185 54.2855C259.906 54.2855 260.545 54.1112 261.102 53.7627C261.66 53.4141 262.061 52.9494 262.305 52.3685H263.316C263.013 53.2282 262.485 53.9195 261.73 54.4423C260.986 54.9535 260.121 55.2091 259.133 55.2091C257.843 55.2091 256.786 54.7793 255.961 53.9195C255.136 53.0598 254.724 52.0025 254.724 50.7478C254.724 49.4814 255.131 48.4125 255.944 47.5412C256.769 46.6698 257.826 46.2341 259.116 46.2341ZM261.381 47.9943C260.777 47.425 260.016 47.1403 259.098 47.1403C258.18 47.1403 257.414 47.4308 256.798 48.0117C256.182 48.581 255.822 49.3013 255.717 50.1727H262.444C262.351 49.2897 261.997 48.5636 261.381 47.9943ZM270.864 54.9826V43.3238H275.273C276.946 43.3238 278.334 43.8756 279.438 44.9794C280.541 46.0715 281.093 47.454 281.093 49.127V49.1793C281.093 50.8523 280.541 52.2407 279.438 53.3444C278.334 54.4365 276.946 54.9826 275.273 54.9826H270.864ZM275.273 44.2648H271.839V54.0415H275.273C276.655 54.0415 277.805 53.5826 278.723 52.6648C279.641 51.7353 280.1 50.5735 280.1 49.1793V49.127C280.1 47.7329 279.641 46.5769 278.723 45.659C277.805 44.7296 276.655 44.2648 275.273 44.2648ZM287.435 46.2341C288.748 46.2341 289.811 46.6814 290.624 47.576C291.437 48.4706 291.821 49.6266 291.774 51.044H284.019C284.054 51.9619 284.397 52.7345 285.047 53.3618C285.709 53.9776 286.529 54.2855 287.504 54.2855C288.225 54.2855 288.864 54.1112 289.421 53.7627C289.979 53.4141 290.38 52.9494 290.624 52.3685H291.635C291.333 53.2282 290.804 53.9195 290.049 54.4423C289.305 54.9535 288.44 55.2091 287.452 55.2091C286.163 55.2091 285.105 54.7793 284.28 53.9195C283.456 53.0598 283.043 52.0025 283.043 50.7478C283.043 49.4814 283.45 48.4125 284.263 47.5412C285.088 46.6698 286.145 46.2341 287.435 46.2341ZM289.7 47.9943C289.096 47.425 288.335 47.1403 287.417 47.1403C286.499 47.1403 285.733 47.4308 285.117 48.0117C284.501 48.581 284.141 49.3013 284.036 50.1727H290.763C290.67 49.2897 290.316 48.5636 289.7 47.9943ZM297.178 53.7975L300.559 46.4258H301.57L297.614 55H296.656L292.7 46.4258H293.763L297.143 53.7975H297.178ZM306.887 46.2341C308.2 46.2341 309.263 46.6814 310.076 47.576C310.89 48.4706 311.273 49.6266 311.227 51.044H303.471C303.506 51.9619 303.849 52.7345 304.5 53.3618C305.162 53.9776 305.981 54.2855 306.957 54.2855C307.677 54.2855 308.316 54.1112 308.874 53.7627C309.432 53.4141 309.832 52.9494 310.076 52.3685H311.087C310.785 53.2282 310.256 53.9195 309.501 54.4423C308.758 54.9535 307.892 55.2091 306.905 55.2091C305.615 55.2091 304.558 54.7793 303.733 53.9195C302.908 53.0598 302.496 52.0025 302.496 50.7478C302.496 49.4814 302.902 48.4125 303.715 47.5412C304.54 46.6698 305.598 46.2341 306.887 46.2341ZM309.153 47.9943C308.549 47.425 307.788 47.1403 306.87 47.1403C305.952 47.1403 305.185 47.4308 304.569 48.0117C303.954 48.581 303.593 49.3013 303.489 50.1727H310.216C310.123 49.2897 309.768 48.5636 309.153 47.9943ZM313.519 53.1004V42.4524H314.477V53.0133C314.477 53.722 314.826 54.0764 315.523 54.0764H317.039V55H315.436C314.82 55 314.344 54.8373 314.007 54.512C313.682 54.1867 313.519 53.7162 313.519 53.1004ZM322.701 55.2091C321.376 55.2091 320.284 54.7734 319.425 53.9021C318.576 53.0307 318.152 51.9619 318.152 50.6955C318.152 49.4407 318.576 48.3835 319.425 47.5237C320.284 46.664 321.376 46.2341 322.701 46.2341C324.002 46.2341 325.077 46.664 325.925 47.5237C326.773 48.3835 327.197 49.4407 327.197 50.6955C327.197 51.9619 326.773 53.0307 325.925 53.9021C325.077 54.7734 324.002 55.2091 322.701 55.2091ZM322.701 54.3029C323.735 54.3029 324.583 53.9544 325.245 53.2573C325.907 52.5602 326.239 51.7063 326.239 50.6955C326.239 49.6963 325.907 48.854 325.245 48.1685C324.583 47.4831 323.735 47.1403 322.701 47.1403C321.644 47.1403 320.778 47.4831 320.104 48.1685C319.442 48.854 319.111 49.6963 319.111 50.6955C319.111 51.7063 319.448 52.5602 320.122 53.2573C320.796 53.9544 321.655 54.3029 322.701 54.3029ZM334.119 46.2341C335.408 46.2225 336.465 46.6466 337.29 47.5063C338.127 48.366 338.545 49.4291 338.545 50.6955C338.545 51.9735 338.127 53.0482 337.29 53.9195C336.454 54.7909 335.402 55.2207 334.136 55.2091C333.334 55.2091 332.62 55.0232 331.992 54.6515C331.365 54.2681 330.877 53.7627 330.529 53.1353H330.476V58.4854H329.535V46.4258H330.476V48.2382H330.529C330.877 47.6341 331.365 47.1519 331.992 46.7918C332.631 46.42 333.34 46.2341 334.119 46.2341ZM333.997 54.2855C335.054 54.2855 335.914 53.9427 336.576 53.2573C337.25 52.5602 337.587 51.7063 337.587 50.6955C337.587 49.6963 337.25 48.854 336.576 48.1685C335.914 47.4831 335.054 47.1403 333.997 47.1403C332.963 47.1403 332.114 47.4831 331.452 48.1685C330.802 48.854 330.476 49.6963 330.476 50.6955C330.476 51.7063 330.802 52.5602 331.452 53.2573C332.114 53.9427 332.963 54.2855 333.997 54.2855ZM350.768 46.2341C351.755 46.2341 352.54 46.5594 353.121 47.21C353.702 47.849 353.992 48.703 353.992 49.7718V55H353.033V49.859C353.033 49.0457 352.819 48.3951 352.389 47.9071C351.959 47.4075 351.366 47.1578 350.611 47.1578C349.786 47.1578 349.13 47.4656 348.642 48.0814C348.165 48.6855 347.927 49.3826 347.927 50.1727V55H346.969V49.8415C346.969 49.0167 346.748 48.366 346.307 47.8897C345.865 47.4017 345.284 47.1578 344.564 47.1578C343.692 47.1694 343.019 47.5295 342.542 48.2382C342.078 48.9353 341.845 49.6847 341.845 50.4864V55H340.887V46.4432H341.81V48.1163H341.845C342.519 46.8615 343.483 46.2341 344.738 46.2341C345.424 46.2341 346.016 46.4142 346.516 46.7744C347.027 47.1345 347.404 47.6283 347.648 48.2557H347.666C347.945 47.6631 348.34 47.181 348.851 46.8092C349.374 46.4258 350.013 46.2341 350.768 46.2341ZM360.598 46.2341C361.911 46.2341 362.974 46.6814 363.788 47.576C364.601 48.4706 364.984 49.6266 364.938 51.044H357.183C357.218 51.9619 357.56 52.7345 358.211 53.3618C358.873 53.9776 359.692 54.2855 360.668 54.2855C361.388 54.2855 362.027 54.1112 362.585 53.7627C363.143 53.4141 363.544 52.9494 363.788 52.3685H364.798C364.496 53.2282 363.968 53.9195 363.212 54.4423C362.469 54.9535 361.603 55.2091 360.616 55.2091C359.326 55.2091 358.269 54.7793 357.444 53.9195C356.619 53.0598 356.207 52.0025 356.207 50.7478C356.207 49.4814 356.613 48.4125 357.427 47.5412C358.252 46.6698 359.309 46.2341 360.598 46.2341ZM362.864 47.9943C362.26 47.425 361.499 47.1403 360.581 47.1403C359.663 47.1403 358.896 47.4308 358.281 48.0117C357.665 48.581 357.305 49.3013 357.2 50.1727H363.927C363.834 49.2897 363.48 48.5636 362.864 47.9943ZM371.657 46.2341C372.714 46.2341 373.562 46.571 374.201 47.2449C374.852 47.9187 375.177 48.825 375.177 49.9635V55H374.218V50.103C374.218 49.22 373.969 48.5113 373.469 47.9768C372.969 47.4308 372.313 47.1578 371.5 47.1578C370.559 47.1578 369.78 47.5005 369.165 48.186C368.56 48.8598 368.258 49.7137 368.258 50.7478V55H367.3V46.4258H368.241V48.2557H368.276C368.624 47.6399 369.095 47.1519 369.687 46.7918C370.28 46.42 370.936 46.2341 371.657 46.2341ZM383.586 46.4258V47.3495H379.317V53.0133C379.317 53.3386 379.41 53.5942 379.595 53.7801C379.781 53.966 380.037 54.0589 380.362 54.0589H383.586V55H380.258C379.642 55 379.171 54.8373 378.846 54.512C378.521 54.1867 378.358 53.722 378.358 53.1179V47.3495H376.79V46.4258H378.358V43.3238H379.317V46.4258H383.586Z" fill="white"/>
</svg>
