<svg width="176" height="32" viewBox="0 0 176 32" fill="none" xmlns="http://www.w3.org/2000/svg">
<path d="M25.7027 25.9262C24.45 27.4652 22.8981 28.7492 21.1419 29.6825C19.1439 30.7147 16.9135 31.2778 14.5438 31.2778C12.174 31.2778 9.94367 30.7147 7.94564 29.6825C3.2526 27.2427 0 22.3161 0 16.6389C0 15.7005 0.0929315 14.7621 0.278795 13.8706C0.557589 12.5569 0.975781 11.2901 1.53337 10.1171C3.90312 5.28436 8.82849 1.99999 14.5438 1.99999C14.8226 1.99999 15.1014 1.99999 15.3337 2.04691C19.051 2.23459 22.3965 3.87678 24.8592 6.36351C23.2793 8.24029 22.1642 10.4924 21.5601 12.9322C20.6773 11.2431 19.1904 9.88247 17.4247 9.17868C16.5418 8.80333 15.566 8.61565 14.5438 8.61565C12.3134 8.61565 10.2689 9.55404 8.82849 11.0555C7.43452 12.51 6.59814 14.4806 6.59814 16.6389C6.59814 16.9673 6.59814 17.2958 6.6446 17.6711C7.0628 21.1901 9.80427 24.0053 13.2427 24.5683C13.6609 24.6621 14.0791 24.6621 14.5438 24.6621C17.7499 24.6621 20.5379 22.7384 21.7924 19.9702C21.8389 19.8763 21.8389 19.8294 21.8389 19.8294H29.6451C30.8068 22.5507 33.4089 24.4744 36.5221 24.6621H36.9403C41.1222 24.6621 44.6071 21.3308 44.8859 17.155V16.4981C44.793 12.1346 41.2616 8.61565 36.9403 8.61565C36.7079 8.61565 36.4756 8.61565 36.2433 8.66257C33.1765 8.94408 30.6209 10.9616 29.5522 13.7299L29.5987 13.683C29.5987 14.4337 30.2027 15.0436 30.9462 15.0436H40.3787V17.8588H22.4429C22.3965 17.4834 22.3965 17.0612 22.3965 16.6858C22.3965 8.61565 28.9017 1.99999 36.9403 1.99999C37.7302 1.99999 38.5201 2.04691 39.31 2.18767C45.3506 3.17298 50.1366 7.95878 51.2517 13.9645C51.3447 14.5744 51.4376 15.2313 51.4841 15.8882C51.4841 16.0001 51.4946 16.1228 51.5057 16.251C51.5178 16.3915 51.5305 16.5387 51.5305 16.6858L51.4841 16.6389C51.4841 24.709 44.9789 31.2778 36.9403 31.2778C36.5221 31.2778 36.1039 31.2778 35.6392 31.2309C31.632 30.8764 28.1034 28.8858 25.7027 25.9262Z" fill="#4CC8AF"/>
<path d="M66.195 4.47554C66.5122 4.74069 66.6898 5.11001 66.7276 5.58349H70.506C70.5013 4.63179 70.2646 3.80082 69.7958 3.09059C69.3318 2.37563 68.6713 1.82165 67.8143 1.42866C66.9573 1.03567 65.9416 0.839171 64.7674 0.839171C63.6168 0.839171 62.5965 1.0333 61.7063 1.42156C60.8209 1.80982 60.1273 2.35196 59.6254 3.04798C59.1282 3.73927 58.882 4.54656 58.8867 5.46985C58.882 6.60622 59.2489 7.50347 59.9876 8.16162C60.7309 8.81502 61.7466 9.28141 63.0344 9.56076L64.4833 9.87326C65.0231 9.99163 65.4516 10.1195 65.7688 10.2568C66.0861 10.3894 66.3133 10.5409 66.4506 10.7113C66.5927 10.8771 66.6661 11.0712 66.6708 11.2937C66.6661 11.5305 66.5903 11.7412 66.4435 11.9258C66.2968 12.1105 66.0813 12.2549 65.7972 12.3591C65.5131 12.4632 65.1604 12.5153 64.739 12.5153C64.2371 12.5153 63.8039 12.4372 63.4393 12.2809C63.0794 12.1247 62.8001 11.895 62.6012 11.592C62.4023 11.289 62.2911 10.9149 62.2674 10.4699H58.5174C58.5221 11.6867 58.7826 12.6858 59.2986 13.467C59.8195 14.2435 60.5486 14.8188 61.4861 15.1929C62.4284 15.5669 63.5316 15.7539 64.7958 15.7539C66.0269 15.7539 67.0804 15.5811 67.9563 15.2355C68.837 14.8898 69.5141 14.3856 69.9876 13.7227C70.4611 13.0598 70.7002 12.2502 70.7049 11.2937C70.7002 10.7397 70.6102 10.2284 70.435 9.75963C70.2646 9.29088 69.997 8.86948 69.6325 8.49542C69.2679 8.11663 68.7991 7.78756 68.2262 7.50821C67.6533 7.22885 66.9644 7.00394 66.1594 6.83349L64.9663 6.57781C64.6206 6.50679 64.3223 6.42629 64.0714 6.33633C63.8204 6.24637 63.6145 6.14694 63.4535 6.03804C63.2925 5.9244 63.1741 5.79893 63.0984 5.66162C63.0273 5.51957 62.9966 5.36095 63.006 5.18576C63.0108 4.97269 63.0747 4.7833 63.1978 4.61758C63.3209 4.45186 63.5103 4.32165 63.766 4.22696C64.0264 4.12752 64.3602 4.07781 64.7674 4.07781C65.4066 4.07781 65.8825 4.21038 66.195 4.47554Z" fill="#4CC8AF"/>
<path fill-rule="evenodd" clip-rule="evenodd" d="M73.5408 13.1048C73.9906 13.9476 74.637 14.6057 75.4798 15.0792C76.3226 15.548 77.3358 15.7824 78.5195 15.7824C79.7032 15.7824 80.7165 15.548 81.5593 15.0792C82.4021 14.6057 83.0484 13.9476 83.4982 13.1048C83.948 12.2573 84.1729 11.2748 84.1729 10.1574C84.1729 9.03993 83.948 8.05982 83.4982 7.21701C83.0484 6.36948 82.4021 5.71133 81.5593 5.24258C80.7165 4.7691 79.7032 4.53235 78.5195 4.53235C77.3358 4.53235 76.3226 4.7691 75.4798 5.24258C74.637 5.71133 73.9906 6.36948 73.5408 7.21701C73.091 8.05982 72.8661 9.03993 72.8661 10.1574C72.8661 11.2748 73.091 12.2573 73.5408 13.1048ZM79.4073 12.5508C79.1658 12.7734 78.8794 12.8846 78.5479 12.8846C78.1976 12.8846 77.8969 12.7734 77.646 12.5508C77.395 12.3283 77.2032 12.011 77.0707 11.5991C76.9381 11.1872 76.8718 10.6971 76.8718 10.1289C76.8718 9.55603 76.9381 9.06597 77.0707 8.65877C77.2032 8.24684 77.395 7.92961 77.646 7.70707C77.8969 7.48453 78.1976 7.37326 78.5479 7.37326C78.8794 7.37326 79.1658 7.48453 79.4073 7.70707C79.6488 7.92961 79.8358 8.24684 79.9684 8.65877C80.101 9.06597 80.1673 9.55603 80.1673 10.1289C80.1673 10.6971 80.101 11.1872 79.9684 11.5991C79.8358 12.011 79.6488 12.3283 79.4073 12.5508Z" fill="#4CC8AF"/>
<path d="M93.2979 7.51531V4.6744H91.3093V4.19144C91.3093 3.93576 91.3732 3.7298 91.5011 3.57355C91.6289 3.4173 91.8775 3.33917 92.2468 3.33917C92.3888 3.33917 92.5546 3.35338 92.744 3.38179C92.9334 3.40546 93.0991 3.4386 93.2411 3.48122L93.8093 0.668716C93.582 0.611899 93.2317 0.545611 92.7582 0.469854C92.2894 0.394096 91.8065 0.356216 91.3093 0.356216C90.5138 0.356216 89.8226 0.502997 89.2354 0.796558C88.6483 1.09012 88.1938 1.53283 87.8718 2.12468C87.5498 2.71654 87.3888 3.46228 87.3888 4.3619V4.6744H85.9968V7.51531H87.3888V15.5835H91.3093V7.51531H93.2979Z" fill="#4CC8AF"/>
<path d="M102.316 7.51531V4.6744H100.441V2.06076H96.521V4.6744H95.1289V7.51531H96.521V12.4443C96.5115 13.2066 96.6606 13.8411 96.9684 14.3477C97.2762 14.8543 97.7354 15.226 98.3462 15.4628C98.957 15.6948 99.7122 15.7871 100.612 15.7397C101.057 15.7161 101.44 15.6663 101.762 15.5906C102.089 15.5148 102.34 15.4509 102.515 15.3988L101.947 12.6432C101.871 12.6621 101.753 12.6858 101.592 12.7142C101.436 12.7426 101.298 12.7568 101.18 12.7568C101.01 12.7568 100.87 12.7331 100.761 12.6858C100.652 12.6337 100.572 12.5579 100.52 12.4585C100.467 12.3543 100.441 12.2265 100.441 12.075V7.51531H102.316Z" fill="#4CC8AF"/>
<path d="M105.094 1.03804V15.5835H115.548V12.4017H109.043V9.90167H115.037V6.71985H109.043V4.21985H115.577V1.03804H105.094Z" fill="#4CC8AF"/>
<path d="M123.564 8.05508L121.973 4.6744H118.052L120.95 10.1289L117.853 15.5835H121.774L123.564 12.1176L125.41 15.5835H129.274L126.206 10.1289L129.132 4.6744H125.24L123.564 8.05508Z" fill="#4CC8AF"/>
<path fill-rule="evenodd" clip-rule="evenodd" d="M131.526 4.6744V19.6744H135.446V13.7937H135.503C135.654 14.163 135.87 14.4945 136.149 14.788C136.433 15.0769 136.774 15.3065 137.172 15.477C137.574 15.6427 138.031 15.7255 138.543 15.7255C139.319 15.7255 140.032 15.5219 140.68 15.1147C141.334 14.7075 141.855 14.0896 142.243 13.261C142.636 12.4324 142.832 11.3884 142.832 10.1289C142.832 8.81266 142.626 7.74258 142.214 6.91872C141.807 6.09485 141.277 5.49116 140.624 5.10764C139.975 4.72412 139.291 4.53235 138.571 4.53235C138.031 4.53235 137.558 4.62705 137.151 4.81644C136.743 5.0011 136.402 5.24968 136.128 5.56218C135.853 5.86995 135.645 6.20849 135.503 6.57781H135.418V4.6744H131.526ZM135.567 11.5068C135.429 11.1185 135.361 10.6592 135.361 10.1289C135.361 9.58917 135.429 9.12752 135.567 8.744C135.709 8.35574 135.908 8.05982 136.163 7.85622C136.424 7.64788 136.734 7.54372 137.094 7.54372C137.454 7.54372 137.759 7.64788 138.01 7.85622C138.266 8.05982 138.46 8.35574 138.592 8.744C138.73 9.12752 138.798 9.58917 138.798 10.1289C138.798 10.6687 138.73 11.1327 138.592 11.521C138.46 11.9045 138.266 12.2004 138.01 12.4088C137.759 12.6124 137.454 12.7142 137.094 12.7142C136.734 12.7142 136.424 12.61 136.163 12.4017C135.908 12.1886 135.709 11.8903 135.567 11.5068Z" fill="#4CC8AF"/>
<path fill-rule="evenodd" clip-rule="evenodd" d="M147.691 15.1147C148.533 15.5598 149.537 15.7824 150.702 15.7824C151.711 15.7824 152.591 15.6308 153.344 15.3278C154.102 15.02 154.71 14.5892 155.169 14.0352C155.629 13.4765 155.92 12.8183 156.043 12.0608H152.463C152.388 12.2644 152.269 12.4396 152.108 12.5863C151.947 12.7284 151.753 12.8373 151.526 12.913C151.303 12.9888 151.057 13.0267 150.787 13.0267C150.399 13.0267 150.068 12.9485 149.793 12.7923C149.518 12.636 149.308 12.4206 149.161 12.146C149.014 11.8714 148.941 11.5589 148.941 11.2085V11.038H156.043V10.1289C156.043 9.26247 155.915 8.48358 155.659 7.7923C155.404 7.10101 155.039 6.51389 154.566 6.03093C154.092 5.54324 153.522 5.17156 152.854 4.91588C152.186 4.6602 151.441 4.53235 150.617 4.53235C149.49 4.53235 148.512 4.76673 147.684 5.23548C146.855 5.70423 146.213 6.36001 145.759 7.20281C145.304 8.04561 145.077 9.03046 145.077 10.1574C145.077 11.3316 145.302 12.3401 145.752 13.1829C146.206 14.021 146.853 14.6649 147.691 15.1147ZM148.941 8.87894C148.95 8.56171 149.033 8.28472 149.189 8.04798C149.35 7.81124 149.563 7.62658 149.828 7.494C150.094 7.35669 150.385 7.28804 150.702 7.28804C151.029 7.28804 151.32 7.35669 151.576 7.494C151.836 7.62658 152.042 7.8136 152.194 8.05508C152.35 8.29182 152.43 8.56644 152.435 8.87894H148.941Z" fill="#4CC8AF"/>
<path d="M162.45 4.6744H158.643V15.5835H162.563V9.90167C162.563 9.48501 162.651 9.12279 162.826 8.81502C163.001 8.50252 163.24 8.26105 163.543 8.09059C163.851 7.9154 164.197 7.82781 164.58 7.82781C164.784 7.82781 165.028 7.84438 165.312 7.87752C165.596 7.91067 165.835 7.96038 166.029 8.02667V4.6815C165.873 4.63415 165.71 4.59864 165.539 4.57497C165.373 4.54656 165.205 4.53235 165.035 4.53235C164.452 4.53235 163.943 4.70991 163.508 5.06502C163.077 5.42014 162.762 5.98122 162.563 6.74826H162.45V4.6744Z" fill="#4CC8AF"/>
<path d="M175.27 7.51531V4.6744H173.395V2.06076H169.474V4.6744H168.082V7.51531H169.474V12.4443C169.465 13.2066 169.614 13.8411 169.922 14.3477C170.229 14.8543 170.689 15.226 171.299 15.4628C171.91 15.6948 172.665 15.7871 173.565 15.7397C174.01 15.7161 174.394 15.6663 174.716 15.5906C175.042 15.5148 175.293 15.4509 175.468 15.3988L174.9 12.6432C174.824 12.6621 174.706 12.6858 174.545 12.7142C174.389 12.7426 174.252 12.7568 174.133 12.7568C173.963 12.7568 173.823 12.7331 173.714 12.6858C173.605 12.6337 173.525 12.5579 173.473 12.4585C173.421 12.3543 173.395 12.2265 173.395 12.075V7.51531H175.27Z" fill="#4CC8AF"/>
</svg>
