<svg width="206" height="34" viewBox="0 0 206 34" fill="none" xmlns="http://www.w3.org/2000/svg">
<path d="M25.609 20.7051C25.609 20.7051 25.609 20.7596 25.5545 20.8686C24.0833 24.0833 20.8141 26.3173 17.0545 26.3173C16.5096 26.3173 16.0192 26.3173 15.5288 26.2083C11.4968 25.5545 8.28205 22.2853 7.79167 18.1987C7.73718 17.7628 7.73718 17.3814 7.73718 17C7.73718 14.4936 8.71795 12.2051 10.3526 10.516C12.0417 8.77244 14.4391 7.68269 17.0545 7.68269C18.2532 7.68269 19.3974 7.90064 20.4327 8.33654C22.5032 9.15385 24.2468 10.734 25.2821 12.6955C25.9904 9.86218 27.2981 7.2468 29.1506 5.06731C26.2628 2.17949 22.3397 0.272436 17.9808 0.0544872C17.7083 0 17.3814 0 17.0545 0C10.3526 0 4.57692 3.8141 1.79808 9.42628C1.14423 10.7885 0.653846 12.2596 0.326923 13.7853C0.108974 14.8205 0 15.9103 0 17C0 23.593 3.8141 29.3141 9.31731 32.1474C11.6603 33.3462 14.2756 34 17.0545 34C19.8333 34 22.4487 33.3462 24.7917 32.1474C26.851 31.0636 28.6708 29.5725 30.1398 27.7853C32.955 31.2223 37.0926 33.5339 41.7917 33.9455C42.3365 34 42.8269 34 43.3173 34C52.7436 34 60.3718 26.3718 60.3718 17L60.4263 17.0545C60.4263 16.8836 60.4114 16.7127 60.3972 16.5496C60.3842 16.4006 60.3718 16.2582 60.3718 16.1282C60.3173 15.3654 60.2083 14.6026 60.0994 13.8942C58.7917 6.91987 53.1795 1.36218 46.0962 0.217949C45.1699 0.0544872 44.2436 0 43.3173 0C38.0117 0 33.2757 2.4339 30.149 6.23297L30.1315 6.21143C27.734 9.15373 26.2629 12.9134 26.2629 16.9999L26.2628 17.0545C26.2628 17.2976 26.2628 17.5577 26.2723 17.8159C26.2536 18.0005 26.231 18.1813 26.2084 18.3621H26.3108C26.3129 18.3804 26.315 18.3986 26.3173 18.4167H47.3494V15.1474H36.2885C35.4167 15.1474 34.7083 14.4391 34.7083 13.5673L34.6538 13.6218C35.9071 10.4071 38.9038 8.0641 42.5 7.73718C42.7724 7.68269 43.0449 7.68269 43.3173 7.68269C48.3846 7.68269 52.5256 11.7692 52.6346 16.8365V17.5994C52.3077 22.4487 48.2212 26.3173 43.3173 26.3173H42.8269C39.1763 26.0994 36.125 23.8654 34.7628 20.7051H25.609Z" fill="#4CC8AF"/>
<path d="M76.694 12.941C77.067 13.2528 77.2757 13.687 77.3203 14.2436H81.7623C81.7567 13.1247 81.4784 12.1478 80.9273 11.3128C80.3818 10.4723 79.6053 9.82103 78.5978 9.35901C77.5902 8.897 76.3962 8.66599 75.0157 8.66599C73.6631 8.66599 72.4635 8.89421 71.417 9.35066C70.3761 9.80712 69.5606 10.4445 68.9705 11.2628C68.386 12.0755 68.0966 13.0245 68.1022 14.11C68.0966 15.446 68.528 16.5008 69.3964 17.2746C70.2703 18.0427 71.4643 18.591 72.9784 18.9194L74.6817 19.2868C75.3163 19.426 75.8201 19.5763 76.193 19.7377C76.566 19.8936 76.8332 20.0717 76.9946 20.2721C77.1616 20.4669 77.2479 20.6952 77.2535 20.9568C77.2479 21.2351 77.1588 21.4828 76.9863 21.6999C76.8137 21.917 76.5604 22.0868 76.2264 22.2092C75.8924 22.3317 75.4777 22.3929 74.9823 22.3929C74.3923 22.3929 73.8829 22.3011 73.4543 22.1174C73.0313 21.9337 72.7029 21.6637 72.4691 21.3075C72.2353 20.9512 72.1045 20.5115 72.0766 19.9882H67.668C67.6735 21.4188 67.9797 22.5933 68.5864 23.5118C69.1988 24.4247 70.056 25.101 71.1582 25.5408C72.2659 25.9805 73.5629 26.2004 75.0491 26.2004C76.4964 26.2004 77.735 25.9972 78.7648 25.5909C79.8001 25.1845 80.5961 24.5917 81.1528 23.8124C81.7094 23.0331 81.9905 22.0812 81.9961 20.9568C81.9905 20.3055 81.8848 19.7043 81.6788 19.1532C81.4784 18.6022 81.1639 18.1067 80.7353 17.667C80.3067 17.2217 79.7556 16.8348 79.082 16.5064C78.4085 16.178 77.5986 15.9135 76.6523 15.7132L75.2495 15.4126C74.8432 15.3291 74.4925 15.2344 74.1975 15.1287C73.9024 15.0229 73.6603 14.906 73.471 14.778C73.2818 14.6444 73.1426 14.4969 73.0535 14.3355C72.97 14.1685 72.9339 13.982 72.945 13.776C72.9506 13.5255 73.0257 13.3029 73.1704 13.108C73.3152 12.9132 73.5378 12.7601 73.8384 12.6488C74.1446 12.5319 74.537 12.4735 75.0157 12.4735C75.7672 12.4735 76.3266 12.6293 76.694 12.941Z" fill="#4CC8AF"/>
<path fill-rule="evenodd" clip-rule="evenodd" d="M85.3301 23.086C85.859 24.0768 86.6188 24.8505 87.6096 25.4072C88.6004 25.9583 89.7917 26.2338 91.1833 26.2338C92.5749 26.2338 93.7661 25.9583 94.757 25.4072C95.7478 24.8505 96.5076 24.0768 97.0365 23.086C97.5653 22.0896 97.8297 20.9345 97.8297 19.6208C97.8297 18.3071 97.5653 17.1549 97.0365 16.164C96.5076 15.1676 95.7478 14.3939 94.757 13.8428C93.7661 13.2862 92.5749 13.0078 91.1833 13.0078C89.7917 13.0078 88.6004 13.2862 87.6096 13.8428C86.6188 14.3939 85.859 15.1676 85.3301 16.164C84.8013 17.1549 84.5369 18.3071 84.5369 19.6208C84.5369 20.9345 84.8013 22.0896 85.3301 23.086ZM92.227 22.4347C91.9431 22.6963 91.6063 22.8271 91.2167 22.8271C90.8048 22.8271 90.4513 22.6963 90.1563 22.4347C89.8613 22.1731 89.6358 21.8001 89.4799 21.3158C89.3241 20.8315 89.2462 20.2554 89.2462 19.5874C89.2462 18.9139 89.3241 18.3378 89.4799 17.859C89.6358 17.3747 89.8613 17.0018 90.1563 16.7402C90.4513 16.4785 90.8048 16.3477 91.2167 16.3477C91.6063 16.3477 91.9431 16.4785 92.227 16.7402C92.5109 17.0018 92.7308 17.3747 92.8866 17.859C93.0425 18.3378 93.1204 18.9139 93.1204 19.5874C93.1204 20.2554 93.0425 20.8315 92.8866 21.3158C92.7308 21.8001 92.5109 22.1731 92.227 22.4347Z" fill="#4CC8AF"/>
<path d="M108.557 16.5147V13.1748H106.219V12.6071C106.219 12.3065 106.295 12.0643 106.445 11.8806C106.595 11.6969 106.887 11.6051 107.322 11.6051C107.489 11.6051 107.683 11.6218 107.906 11.6552C108.129 11.683 108.324 11.722 108.491 11.7721L109.159 8.46559C108.891 8.3988 108.479 8.32087 107.923 8.2318C107.372 8.14274 106.804 8.09821 106.219 8.09821C105.284 8.09821 104.472 8.27077 103.781 8.61589C103.091 8.96101 102.557 9.48148 102.178 10.1773C101.8 10.8731 101.61 11.7498 101.61 12.8075V13.1748H99.9739V16.5147H101.61V26H106.219V16.5147H108.557Z" fill="#4CC8AF"/>
<path d="M119.16 16.5147V13.1748H116.956V10.1021H112.347V13.1748H110.71V16.5147H112.347V22.3094C112.335 23.2056 112.511 23.9515 112.873 24.5472C113.234 25.1428 113.774 25.5797 114.492 25.8581C115.21 26.1308 116.098 26.2394 117.156 26.1837C117.679 26.1559 118.13 26.0974 118.509 26.0084C118.893 25.9193 119.188 25.8442 119.394 25.7829L118.726 22.5432C118.637 22.5655 118.497 22.5933 118.308 22.6267C118.125 22.6601 117.963 22.6768 117.824 22.6768C117.624 22.6768 117.459 22.649 117.331 22.5933C117.203 22.5321 117.109 22.443 117.047 22.3261C116.986 22.2037 116.956 22.0534 116.956 21.8752V16.5147H119.16Z" fill="#4CC8AF"/>
<path d="M122.425 8.89978V26H134.716V22.2593H127.067V19.3202H134.115V15.5796H127.067V12.6405H134.749V8.89978H122.425Z" fill="#4CC8AF"/>
<path d="M144.139 17.1493L142.269 13.1748H137.66L141.066 19.5874L137.426 26H142.035L144.139 21.9253L146.31 26H150.852L147.245 19.5874L150.685 13.1748H146.109L144.139 17.1493Z" fill="#4CC8AF"/>
<path fill-rule="evenodd" clip-rule="evenodd" d="M153.499 13.1748V30.8095H158.108V23.8959H158.175C158.353 24.3301 158.607 24.7197 158.935 25.0648C159.269 25.4044 159.67 25.6744 160.137 25.8748C160.611 26.0696 161.148 26.167 161.749 26.167C162.662 26.167 163.5 25.9276 164.262 25.4489C165.03 24.9702 165.643 24.2438 166.099 23.2697C166.561 22.2955 166.792 21.0681 166.792 19.5874C166.792 18.0399 166.55 16.7819 166.066 15.8133C165.587 14.8448 164.964 14.1351 164.195 13.6842C163.433 13.2333 162.628 13.0078 161.782 13.0078C161.148 13.0078 160.591 13.1192 160.112 13.3418C159.634 13.5589 159.233 13.8512 158.91 14.2186C158.587 14.5804 158.342 14.9784 158.175 15.4126H158.075V13.1748H153.499ZM158.25 21.2073C158.089 20.7508 158.008 20.2109 158.008 19.5874C158.008 18.9528 158.089 18.4101 158.25 17.9592C158.417 17.5028 158.651 17.1549 158.952 16.9155C159.258 16.6706 159.622 16.5481 160.046 16.5481C160.469 16.5481 160.828 16.6706 161.123 16.9155C161.423 17.1549 161.651 17.5028 161.807 17.9592C161.969 18.4101 162.049 18.9528 162.049 19.5874C162.049 20.222 161.969 20.7675 161.807 21.224C161.651 21.6749 161.423 22.0228 161.123 22.2677C160.828 22.507 160.469 22.6267 160.046 22.6267C159.622 22.6267 159.258 22.5043 158.952 22.2593C158.651 22.0088 158.417 21.6582 158.25 21.2073Z" fill="#4CC8AF"/>
<path fill-rule="evenodd" clip-rule="evenodd" d="M172.504 25.4489C173.495 25.9722 174.675 26.2338 176.044 26.2338C177.23 26.2338 178.265 26.0557 179.15 25.6994C180.041 25.3376 180.756 24.8311 181.296 24.1798C181.836 23.5229 182.178 22.7492 182.323 21.8586H178.115C178.026 22.0979 177.887 22.3039 177.697 22.4764C177.508 22.6434 177.28 22.7715 177.013 22.8605C176.751 22.9496 176.462 22.9941 176.144 22.9941C175.688 22.9941 175.298 22.9023 174.975 22.7186C174.652 22.5349 174.405 22.2816 174.232 21.9587C174.06 21.6359 173.973 21.2685 173.973 20.8566V20.6562H182.323V19.5874C182.323 18.5688 182.173 17.6531 181.872 16.8404C181.572 16.0277 181.143 15.3374 180.586 14.7696C180.03 14.1963 179.359 13.7593 178.574 13.4587C177.789 13.1581 176.912 13.0078 175.944 13.0078C174.619 13.0078 173.47 13.2834 172.495 13.8345C171.521 14.3855 170.767 15.1565 170.233 16.1473C169.698 17.1382 169.431 18.296 169.431 19.6208C169.431 21.0013 169.695 22.187 170.224 23.1778C170.759 24.1631 171.518 24.9201 172.504 25.4489ZM173.973 18.1179C173.984 17.7449 174.082 17.4193 174.266 17.141C174.455 16.8626 174.705 16.6455 175.017 16.4897C175.329 16.3282 175.671 16.2475 176.044 16.2475C176.428 16.2475 176.77 16.3282 177.071 16.4897C177.377 16.6455 177.619 16.8654 177.797 17.1493C177.981 17.4276 178.076 17.7505 178.081 18.1179H173.973Z" fill="#4CC8AF"/>
<path d="M185.379 13.1748V26H189.988V19.3202C189.988 18.8304 190.091 18.4045 190.297 18.0427C190.503 17.6753 190.784 17.3914 191.141 17.1911C191.503 16.9851 191.909 16.8821 192.36 16.8821C192.599 16.8821 192.886 16.9016 193.22 16.9406C193.554 16.9795 193.835 17.038 194.063 17.1159V13.1832C193.879 13.1275 193.687 13.0858 193.487 13.0579C193.292 13.0245 193.095 13.0078 192.894 13.0078C192.21 13.0078 191.611 13.2166 191.099 13.6341C190.592 14.0516 190.222 14.7112 189.988 15.613H189.855V13.1748H185.379Z" fill="#4CC8AF"/>
<path d="M204.927 16.5147V13.1748H202.722V10.1021H198.113V13.1748H196.477V16.5147H198.113V22.3094C198.102 23.2056 198.277 23.9515 198.639 24.5472C199.001 25.1428 199.541 25.5797 200.259 25.8581C200.977 26.1308 201.865 26.2394 202.923 26.1837C203.446 26.1559 203.897 26.0974 204.275 26.0084C204.659 25.9193 204.954 25.8442 205.16 25.7829L204.492 22.5432C204.403 22.5655 204.264 22.5933 204.075 22.6267C203.891 22.6601 203.73 22.6768 203.591 22.6768C203.39 22.6768 203.226 22.649 203.098 22.5933C202.97 22.5321 202.875 22.443 202.814 22.3261C202.753 22.2037 202.722 22.0534 202.722 21.8752V16.5147H204.927Z" fill="#4CC8AF"/>
</svg>
