<svg width="382" height="61" viewBox="0 0 382 61" fill="none" xmlns="http://www.w3.org/2000/svg">
<path fill-rule="evenodd" clip-rule="evenodd" d="M41.6943 27.6868C41.6943 28.4637 41.6079 29.1543 41.5216 29.8449H53.7796C53.8659 29.1543 53.8659 28.3774 53.8659 27.6868C53.8659 21.2125 51.5351 15.2562 47.7369 10.5947C43.9387 15.2562 41.6079 21.2125 41.6079 27.6868H41.6943Z" fill="white"/>
<path d="M47.7502 44.773C45.4229 47.6044 42.5398 49.9667 39.2772 51.6838C35.5653 53.583 31.4218 54.6188 27.0193 54.6188C22.6168 54.6188 18.4732 53.583 14.7613 51.6838C6.04265 47.195 0 38.131 0 27.6859C0 25.9594 0.172647 24.2329 0.517941 22.5928C1.03588 20.1757 1.8128 17.845 2.84868 15.6869C7.25118 6.79558 16.4015 0.75293 27.0193 0.75293C27.5372 0.75293 28.0552 0.75293 28.4868 0.839253C35.3927 1.18455 41.608 4.20587 46.1831 8.78102C43.2481 12.234 41.1763 16.3775 40.0541 20.8663C38.414 17.7587 35.6516 15.2553 32.3713 13.9604C30.7312 13.2698 28.9184 12.9246 27.0193 12.9246C22.8757 12.9246 19.0775 14.651 16.4015 17.4134C13.8118 20.0894 12.2579 23.715 12.2579 27.6859C12.2579 28.2902 12.2579 28.8944 12.3443 29.585C13.1212 36.0593 18.2143 41.2387 24.6022 42.2746C25.3791 42.4472 26.156 42.4472 27.0193 42.4472C32.9756 42.4472 38.155 38.908 40.4858 33.8149C40.5721 33.6422 40.5721 33.5559 40.5721 33.5559H55.0744C57.2325 38.5627 62.0666 42.1019 67.8503 42.4472H68.6272C76.3963 42.4472 82.8706 36.3182 83.3885 28.6354V27.4269C83.2159 19.3988 76.6553 12.9246 68.6272 12.9246C68.1956 12.9246 67.764 12.9246 67.3323 13.0109C61.635 13.5288 56.8872 17.2407 54.9017 22.3338L54.9881 22.2475C54.9881 23.6287 56.1103 24.7509 57.4914 24.7509H75.0151V29.9303H41.6942C41.6079 29.2397 41.6079 28.4628 41.6079 27.7722C41.6079 12.9246 53.6932 0.75293 68.6272 0.75293C70.0947 0.75293 71.5622 0.839253 73.0297 1.09822C84.2518 2.91102 93.1431 11.716 95.2149 22.7654C95.3875 23.8876 95.5602 25.0962 95.6465 26.3047C95.6465 26.5107 95.6661 26.7363 95.6867 26.9721C95.7092 27.2306 95.7328 27.5014 95.7328 27.7722L95.6465 27.6859C95.6465 42.5335 83.5612 54.6188 68.6272 54.6188C67.8503 54.6188 67.0734 54.6188 66.2101 54.5325C58.7655 53.8804 52.2102 50.2181 47.7502 44.773Z" fill="white"/>
<path d="M124.358 11.3108C124.949 11.8047 125.28 12.4925 125.35 13.3744H132.388C132.379 11.6018 131.938 10.0541 131.065 8.73126C130.201 7.3996 128.97 6.36778 127.374 5.63581C125.778 4.90384 123.886 4.53786 121.699 4.53786C119.556 4.53786 117.656 4.89943 115.998 5.62258C114.349 6.34574 113.057 7.3555 112.122 8.65189C111.196 9.93945 110.737 11.4431 110.746 13.1628C110.737 15.2793 111.421 16.9505 112.797 18.1763C114.181 19.3933 116.073 20.262 118.472 20.7823L121.17 21.3644C122.175 21.5848 122.974 21.823 123.564 22.0787C124.155 22.3256 124.579 22.6078 124.834 22.9253C125.099 23.234 125.236 23.5956 125.244 24.0101C125.236 24.451 125.095 24.8434 124.821 25.1874C124.548 25.5313 124.147 25.8003 123.617 25.9943C123.088 26.1883 122.431 26.2853 121.646 26.2853C120.712 26.2853 119.905 26.1398 119.226 25.8488C118.555 25.5578 118.035 25.1301 117.665 24.5656C117.294 24.0012 117.087 23.3045 117.043 22.4756H110.058C110.067 24.742 110.552 26.6028 111.513 28.0579C112.483 29.5042 113.842 30.5757 115.588 31.2724C117.343 31.9691 119.398 32.3175 121.752 32.3175C124.045 32.3175 126.007 31.9956 127.639 31.3518C129.279 30.708 130.54 29.7688 131.422 28.5342C132.304 27.2995 132.749 25.7915 132.758 24.0101C132.749 22.9782 132.582 22.0258 132.256 21.1527C131.938 20.2796 131.44 19.4948 130.761 18.7981C130.082 18.0926 129.209 17.4796 128.141 16.9593C127.074 16.439 125.791 16.0201 124.292 15.7026L122.07 15.2264C121.426 15.0941 120.87 14.9442 120.403 14.7766C119.935 14.6091 119.552 14.4239 119.252 14.221C118.952 14.0094 118.732 13.7757 118.591 13.5199C118.458 13.2554 118.401 12.9599 118.419 12.6336C118.427 12.2368 118.546 11.884 118.776 11.5754C119.005 11.2667 119.358 11.0242 119.834 10.8478C120.319 10.6626 120.941 10.57 121.699 10.57C122.89 10.57 123.776 10.8169 124.358 11.3108Z" fill="white"/>
<path fill-rule="evenodd" clip-rule="evenodd" d="M138.785 27.3833C139.623 28.9531 140.827 30.1789 142.397 31.0608C143.966 31.9339 145.854 32.3704 148.058 32.3704C150.263 32.3704 152.15 31.9339 153.72 31.0608C155.29 30.1789 156.494 28.9531 157.332 27.3833C158.169 25.8047 158.588 23.9748 158.588 21.8935C158.588 19.8122 158.169 17.9867 157.332 16.417C156.494 14.8384 155.29 13.6125 153.72 12.7395C152.15 11.8576 150.263 11.4166 148.058 11.4166C145.854 11.4166 143.966 11.8576 142.397 12.7395C140.827 13.6125 139.623 14.8384 138.785 16.417C137.948 17.9867 137.529 19.8122 137.529 21.8935C137.529 23.9748 137.948 25.8047 138.785 27.3833ZM149.712 26.3515C149.262 26.766 148.729 26.9732 148.111 26.9732C147.459 26.9732 146.899 26.766 146.431 26.3515C145.964 25.937 145.607 25.3461 145.36 24.5789C145.113 23.8116 144.989 22.8989 144.989 21.8406C144.989 20.7735 145.113 19.8607 145.36 19.1023C145.607 18.3351 145.964 17.7442 146.431 17.3297C146.899 16.9152 147.459 16.708 148.111 16.708C148.729 16.708 149.262 16.9152 149.712 17.3297C150.162 17.7442 150.51 18.3351 150.757 19.1023C151.004 19.8607 151.127 20.7735 151.127 21.8406C151.127 22.8989 151.004 23.8116 150.757 24.5789C150.51 25.3461 150.162 25.937 149.712 26.3515Z" fill="white"/>
<path d="M176.329 16.9725V11.6812H172.625V10.7817C172.625 10.3054 172.744 9.92181 172.982 9.63079C173.22 9.33976 173.683 9.19425 174.371 9.19425C174.636 9.19425 174.945 9.22071 175.297 9.27362C175.65 9.31772 175.959 9.37945 176.223 9.45882L177.282 4.22037C176.858 4.11455 176.206 3.99108 175.324 3.84998C174.451 3.70888 173.551 3.63833 172.625 3.63833C171.144 3.63833 169.856 3.91171 168.762 4.45849C167.669 5.00526 166.822 5.82983 166.223 6.9322C165.623 8.03456 165.323 9.42354 165.323 11.0991V11.6812H162.73V16.9725H165.323V32H172.625V16.9725H176.329Z" fill="white"/>
<path d="M193.872 16.9725V11.6812H190.379V6.81314H183.077V11.6812H180.484V16.9725H183.077V26.1531C183.06 27.5729 183.337 28.7546 183.911 29.6983C184.484 30.6419 185.339 31.3342 186.477 31.7751C187.614 32.2072 189.021 32.3792 190.697 32.291C191.526 32.2469 192.24 32.1543 192.84 32.0132C193.448 31.8721 193.916 31.7531 194.242 31.6561L193.184 26.5234C193.043 26.5587 192.822 26.6028 192.522 26.6557C192.231 26.7086 191.975 26.7351 191.755 26.7351C191.437 26.7351 191.177 26.691 190.974 26.6028C190.772 26.5058 190.622 26.3647 190.525 26.1795C190.428 25.9855 190.379 25.7474 190.379 25.4652V16.9725H193.872Z" fill="white"/>
<path d="M199.79 4.90825V32H219.262V26.0737H207.144V21.4173H218.309V15.491H207.144V10.8346H219.315V4.90825H199.79Z" fill="white"/>
<path d="M234.936 17.9779L231.972 11.6812H224.67L230.068 21.8406L224.3 32H231.602L234.936 25.5445L238.375 32H245.571L239.857 21.8406L245.307 11.6812H238.058L234.936 17.9779Z" fill="white"/>
<path fill-rule="evenodd" clip-rule="evenodd" d="M250.51 11.6812V39.6196H257.812V28.6664H257.918C258.2 29.3543 258.602 29.9716 259.122 30.5184C259.651 31.0564 260.286 31.4841 261.027 31.8016C261.777 32.1102 262.628 32.2646 263.58 32.2646C265.026 32.2646 266.354 31.8854 267.562 31.1269C268.779 30.3685 269.749 29.2176 270.472 27.6743C271.204 26.131 271.57 24.1864 271.57 21.8406C271.57 19.3889 271.186 17.3959 270.419 15.8614C269.661 14.3269 268.673 13.2025 267.456 12.4881C266.248 11.7738 264.973 11.4166 263.633 11.4166C262.628 11.4166 261.746 11.593 260.987 11.9458C260.229 12.2897 259.594 12.7527 259.082 13.3347C258.571 13.908 258.183 14.5385 257.918 15.2264H257.759V11.6812H250.51ZM258.037 24.4069C257.782 23.6838 257.654 22.8283 257.654 21.8406C257.654 20.8352 257.782 19.9754 258.037 19.2611C258.302 18.5379 258.672 17.9867 259.148 17.6075C259.634 17.2195 260.211 17.0255 260.881 17.0255C261.552 17.0255 262.12 17.2195 262.588 17.6075C263.064 17.9867 263.426 18.5379 263.673 19.2611C263.928 19.9754 264.056 20.8352 264.056 21.8406C264.056 22.846 263.928 23.7102 263.673 24.4334C263.426 25.1477 263.064 25.6989 262.588 26.0869C262.12 26.4661 261.552 26.6557 260.881 26.6557C260.211 26.6557 259.634 26.4617 259.148 26.0737C258.672 25.6768 258.302 25.1212 258.037 24.4069Z" fill="white"/>
<path fill-rule="evenodd" clip-rule="evenodd" d="M281.364 31.1269C282.934 31.9559 284.803 32.3704 286.973 32.3704C288.851 32.3704 290.491 32.0882 291.894 31.5238C293.305 30.9505 294.438 30.148 295.293 29.1162C296.149 28.0756 296.691 26.8497 296.92 25.4387H290.253C290.112 25.8179 289.892 26.1442 289.592 26.4176C289.292 26.6822 288.93 26.885 288.507 27.0261C288.093 27.1672 287.634 27.2378 287.131 27.2378C286.408 27.2378 285.791 27.0923 285.279 26.8012C284.768 26.5102 284.375 26.109 284.102 25.5975C283.829 25.086 283.692 24.5039 283.692 23.8513V23.5338H296.92V21.8406C296.92 20.2267 296.682 18.776 296.206 17.4885C295.73 16.2009 295.051 15.1073 294.169 14.2078C293.287 13.2995 292.224 12.6072 290.981 12.131C289.737 11.6547 288.348 11.4166 286.814 11.4166C284.715 11.4166 282.894 11.8532 281.351 12.7262C279.807 13.5993 278.612 14.8207 277.766 16.3905C276.919 17.9603 276.496 19.7946 276.496 21.8935C276.496 24.0806 276.915 25.959 277.752 27.5288C278.599 29.0898 279.803 30.2891 281.364 31.1269ZM283.692 19.5124C283.71 18.9215 283.864 18.4056 284.155 17.9647C284.455 17.5237 284.852 17.1798 285.346 16.9329C285.839 16.6771 286.382 16.5492 286.973 16.5492C287.581 16.5492 288.124 16.6771 288.6 16.9329C289.085 17.1798 289.468 17.5281 289.751 17.9779C290.042 18.4188 290.192 18.9303 290.2 19.5124H283.692Z" fill="white"/>
<path d="M309.598 11.6812H302.508V32H309.81V21.4173C309.81 20.6412 309.973 19.9666 310.299 19.3933C310.626 18.8113 311.071 18.3615 311.635 18.044C312.209 17.7177 312.852 17.5546 313.567 17.5546C313.946 17.5546 314.4 17.5855 314.929 17.6472C315.458 17.7089 315.904 17.8015 316.265 17.925V11.6944C315.974 11.6062 315.67 11.5401 315.352 11.496C315.044 11.4431 314.731 11.4166 314.413 11.4166C313.329 11.4166 312.38 11.7473 311.569 12.4088C310.767 13.0702 310.18 14.1152 309.81 15.5439H309.598V11.6812Z" fill="white"/>
<path d="M334.221 16.9725V11.6812H330.729V6.81314H323.427V11.6812H320.834V16.9725H323.427V26.1531C323.409 27.5729 323.687 28.7546 324.26 29.6983C324.833 30.6419 325.689 31.3342 326.826 31.7751C327.964 32.2072 329.371 32.3792 331.046 32.291C331.875 32.2469 332.59 32.1543 333.189 32.0132C333.798 31.8721 334.265 31.7531 334.591 31.6561L333.533 26.5234C333.392 26.5587 333.172 26.6028 332.872 26.6557C332.581 26.7086 332.325 26.7351 332.104 26.7351C331.787 26.7351 331.527 26.691 331.324 26.6028C331.121 26.5058 330.971 26.3647 330.874 26.1795C330.777 25.9855 330.729 25.7474 330.729 25.4652V16.9725H334.221Z" fill="white"/>
<path d="M123.116 43.3238V55H122.14V44.8225L117.435 55H116.563L111.875 44.8748V55H110.9V43.3238H112.224L117.017 53.7104L121.826 43.3238H123.116ZM130.027 55.2091C128.702 55.2091 127.61 54.7734 126.751 53.9021C125.902 53.0307 125.478 51.9619 125.478 50.6955C125.478 49.4407 125.902 48.3835 126.751 47.5237C127.61 46.664 128.702 46.2341 130.027 46.2341C131.328 46.2341 132.403 46.664 133.251 47.5237C134.099 48.3835 134.523 49.4407 134.523 50.6955C134.523 51.9619 134.099 53.0307 133.251 53.9021C132.403 54.7734 131.328 55.2091 130.027 55.2091ZM130.027 54.3029C131.061 54.3029 131.909 53.9544 132.571 53.2573C133.233 52.5602 133.565 51.7063 133.565 50.6955C133.565 49.6963 133.233 48.854 132.571 48.1685C131.909 47.4831 131.061 47.1403 130.027 47.1403C128.97 47.1403 128.104 47.4831 127.43 48.1685C126.768 48.854 126.437 49.6963 126.437 50.6955C126.437 51.7063 126.774 52.5602 127.448 53.2573C128.122 53.9544 128.981 54.3029 130.027 54.3029ZM141.445 46.2167C142.711 46.2167 143.763 46.6524 144.599 47.5237C145.436 48.3835 145.854 49.4523 145.854 50.7303C145.854 52.0083 145.436 53.0772 144.599 53.9369C143.774 54.7851 142.717 55.2033 141.428 55.1917C140.649 55.1917 139.94 55.0116 139.301 54.6515C138.674 54.2797 138.186 53.7917 137.838 53.1876H137.785V55H136.844V42.4524H137.785V48.2905H137.838C138.186 47.6631 138.674 47.1636 139.301 46.7918C139.929 46.42 140.643 46.2283 141.445 46.2167ZM141.306 54.2855C142.363 54.2855 143.223 53.9427 143.885 53.2573C144.559 52.5718 144.896 51.7295 144.896 50.7303C144.896 49.7196 144.559 48.8714 143.885 48.186C143.223 47.4889 142.363 47.1403 141.306 47.1403C140.272 47.1403 139.423 47.4889 138.761 48.186C138.111 48.8831 137.785 49.7312 137.785 50.7303C137.785 51.7295 138.111 52.5718 138.761 53.2573C139.423 53.9427 140.272 54.2855 141.306 54.2855ZM148.281 42.4524H149.239V44.8748H148.281V42.4524ZM148.281 46.4258H149.239V55H148.281V46.4258ZM152.176 53.1004V42.4524H153.135V53.0133C153.135 53.722 153.483 54.0764 154.181 54.0764H155.697V55H154.093C153.478 55 153.001 54.8373 152.664 54.512C152.339 54.1867 152.176 53.7162 152.176 53.1004ZM161.219 46.2341C162.532 46.2341 163.595 46.6814 164.408 47.576C165.221 48.4706 165.605 49.6266 165.558 51.044H157.803C157.838 51.9619 158.181 52.7345 158.831 53.3618C159.494 53.9776 160.313 54.2855 161.289 54.2855C162.009 54.2855 162.648 54.1112 163.206 53.7627C163.763 53.4141 164.164 52.9494 164.408 52.3685H165.419C165.117 53.2282 164.588 53.9195 163.833 54.4423C163.09 54.9535 162.224 55.2091 161.236 55.2091C159.947 55.2091 158.89 54.7793 158.065 53.9195C157.24 53.0598 156.827 52.0025 156.827 50.7478C156.827 49.4814 157.234 48.4125 158.047 47.5412C158.872 46.6698 159.929 46.2341 161.219 46.2341ZM163.485 47.9943C162.88 47.425 162.119 47.1403 161.202 47.1403C160.284 47.1403 159.517 47.4308 158.901 48.0117C158.285 48.581 157.925 49.3013 157.821 50.1727H164.548C164.455 49.2897 164.1 48.5636 163.485 47.9943ZM176.353 51.7063L179.542 55H178.253L175.604 52.2814L172.589 54.5295C171.752 55.0988 170.945 55.3195 170.166 55.1917C169.388 55.0639 168.778 54.6689 168.337 54.0066C167.918 53.4374 167.779 52.7693 167.918 52.0025C168.069 51.2241 168.499 50.5677 169.208 50.0332L171.648 48.2034L169.975 46.4781C169.591 46.0134 169.394 45.5486 169.382 45.0839C169.371 44.6192 169.551 44.2126 169.923 43.864C170.306 43.5039 170.794 43.3238 171.386 43.3238H176.249V44.2474H171.334C170.869 44.2474 170.562 44.4333 170.41 44.8051C170.259 45.1652 170.335 45.5022 170.637 45.8159L175.726 51.0615L178.863 48.7262V49.8415L176.353 51.7063ZM172.083 53.7627L174.976 51.6191L172.275 48.8482L169.818 50.6955C169.318 51.0673 169.01 51.5204 168.894 52.0548C168.79 52.5776 168.877 53.0307 169.156 53.4141C169.446 53.8788 169.853 54.1577 170.376 54.2506C170.91 54.3436 171.479 54.1809 172.083 53.7627ZM184.916 43.3238H190.492V44.2648H184.951C184.335 44.2648 183.841 44.4565 183.469 44.8399C183.098 45.2117 182.912 45.6474 182.912 46.147C182.912 46.542 183.045 46.9138 183.312 47.2623C183.58 47.5992 183.951 47.8316 184.428 47.9594L188.854 49.1096C189.621 49.3071 190.208 49.6731 190.614 50.2075C191.033 50.742 191.242 51.3345 191.242 51.9851C191.242 52.7984 190.951 53.5071 190.37 54.1112C189.801 54.7037 189.034 55 188.07 55H182.249V54.0415H188.035C188.686 54.0415 189.203 53.844 189.586 53.449C189.981 53.0423 190.179 52.566 190.179 52.0199C190.179 51.5901 190.034 51.1893 189.743 50.8175C189.464 50.4457 189.075 50.1959 188.575 50.0681L184.132 48.9179C183.411 48.732 182.854 48.3893 182.459 47.8897C182.075 47.3901 181.883 46.8266 181.883 46.1993C181.883 45.4208 182.156 44.747 182.703 44.1777C183.249 43.6084 183.986 43.3238 184.916 43.3238ZM197.71 55.2091C196.386 55.2091 195.294 54.7734 194.434 53.9021C193.586 53.0307 193.162 51.9619 193.162 50.6955C193.162 49.4407 193.586 48.3835 194.434 47.5237C195.294 46.664 196.386 46.2341 197.71 46.2341C199.012 46.2341 200.086 46.664 200.934 47.5237C201.783 48.3835 202.207 49.4407 202.207 50.6955C202.207 51.9619 201.783 53.0307 200.934 53.9021C200.086 54.7734 199.012 55.2091 197.71 55.2091ZM197.71 54.3029C198.744 54.3029 199.593 53.9544 200.255 53.2573C200.917 52.5602 201.248 51.7063 201.248 50.6955C201.248 49.6963 200.917 48.854 200.255 48.1685C199.593 47.4831 198.744 47.1403 197.71 47.1403C196.653 47.1403 195.788 47.4831 195.114 48.1685C194.452 48.854 194.12 49.6963 194.12 50.6955C194.12 51.7063 194.457 52.5602 195.131 53.2573C195.805 53.9544 196.665 54.3029 197.71 54.3029ZM210.331 43.3761H207.107C206.781 43.3761 206.526 43.469 206.34 43.6549C206.154 43.8292 206.061 44.0848 206.061 44.4217V46.4258H210.331V47.3495H206.061V55H205.102V47.3495H203.534V46.4258H205.102V44.3346C205.102 43.7536 205.271 43.2947 205.608 42.9578C205.956 42.6209 206.427 42.4524 207.019 42.4524H210.331V43.3761ZM218.159 46.4258V47.3495H213.89V53.0133C213.89 53.3386 213.983 53.5942 214.168 53.7801C214.354 53.966 214.61 54.0589 214.935 54.0589H218.159V55H214.831C214.215 55 213.744 54.8373 213.419 54.512C213.094 54.1867 212.931 53.722 212.931 53.1179V47.3495H211.363V46.4258H212.931V43.3238H213.89V46.4258H218.159ZM228.476 53.6407L230.968 46.4258H231.997L228.947 55H227.988L225.705 47.7677L223.388 55H222.429L219.397 46.4258H220.425L222.917 53.6581H222.934L225.2 46.4258H226.176L228.476 53.6407ZM241.174 48.2382V46.4258H242.132V55H241.174V53.1353H241.139C240.779 53.7627 240.285 54.2681 239.658 54.6515C239.03 55.0232 238.322 55.2091 237.531 55.2091C236.253 55.2207 235.196 54.7967 234.36 53.9369C233.535 53.0656 233.122 51.9851 233.122 50.6955C233.122 49.4291 233.535 48.366 234.36 47.5063C235.196 46.6466 236.253 46.2225 237.531 46.2341C238.322 46.2341 239.03 46.4142 239.658 46.7744C240.285 47.1345 240.779 47.6225 241.139 48.2382H241.174ZM237.653 54.2855C238.687 54.2855 239.53 53.9427 240.18 53.2573C240.843 52.5602 241.174 51.7063 241.174 50.6955C241.174 49.6963 240.843 48.854 240.18 48.1685C239.53 47.4831 238.687 47.1403 237.653 47.1403C236.608 47.1403 235.748 47.4831 235.074 48.1685C234.412 48.854 234.081 49.6963 234.081 50.6955C234.081 51.7063 234.412 52.5602 235.074 53.2573C235.748 53.9427 236.608 54.2855 237.653 54.2855ZM249.473 46.4258H250.833V47.3843H249.351C248.341 47.3843 247.545 47.6922 246.964 48.308C246.395 48.9237 246.11 49.8125 246.11 50.9743V55H245.152V46.4258H246.093V48.3951H246.127C246.662 47.0822 247.777 46.4258 249.473 46.4258ZM256.116 46.2341C257.428 46.2341 258.491 46.6814 259.305 47.576C260.118 48.4706 260.501 49.6266 260.455 51.044H252.7C252.735 51.9619 253.077 52.7345 253.728 53.3618C254.39 53.9776 255.209 54.2855 256.185 54.2855C256.906 54.2855 257.545 54.1112 258.102 53.7627C258.66 53.4141 259.061 52.9494 259.305 52.3685H260.316C260.013 53.2282 259.485 53.9195 258.73 54.4423C257.986 54.9535 257.121 55.2091 256.133 55.2091C254.843 55.2091 253.786 54.7793 252.961 53.9195C252.136 53.0598 251.724 52.0025 251.724 50.7478C251.724 49.4814 252.131 48.4125 252.944 47.5412C253.769 46.6698 254.826 46.2341 256.116 46.2341ZM258.381 47.9943C257.777 47.425 257.016 47.1403 256.098 47.1403C255.18 47.1403 254.414 47.4308 253.798 48.0117C253.182 48.581 252.822 49.3013 252.717 50.1727H259.444C259.351 49.2897 258.997 48.5636 258.381 47.9943ZM267.864 54.9826V43.3238H272.273C273.946 43.3238 275.334 43.8756 276.438 44.9794C277.541 46.0715 278.093 47.454 278.093 49.127V49.1793C278.093 50.8523 277.541 52.2407 276.438 53.3444C275.334 54.4365 273.946 54.9826 272.273 54.9826H267.864ZM272.273 44.2648H268.839V54.0415H272.273C273.655 54.0415 274.805 53.5826 275.723 52.6648C276.641 51.7353 277.1 50.5735 277.1 49.1793V49.127C277.1 47.7329 276.641 46.5769 275.723 45.659C274.805 44.7296 273.655 44.2648 272.273 44.2648ZM284.435 46.2341C285.748 46.2341 286.811 46.6814 287.624 47.576C288.437 48.4706 288.821 49.6266 288.774 51.044H281.019C281.054 51.9619 281.397 52.7345 282.047 53.3618C282.709 53.9776 283.529 54.2855 284.504 54.2855C285.225 54.2855 285.864 54.1112 286.421 53.7627C286.979 53.4141 287.38 52.9494 287.624 52.3685H288.635C288.333 53.2282 287.804 53.9195 287.049 54.4423C286.305 54.9535 285.44 55.2091 284.452 55.2091C283.163 55.2091 282.105 54.7793 281.28 53.9195C280.456 53.0598 280.043 52.0025 280.043 50.7478C280.043 49.4814 280.45 48.4125 281.263 47.5412C282.088 46.6698 283.145 46.2341 284.435 46.2341ZM286.7 47.9943C286.096 47.425 285.335 47.1403 284.417 47.1403C283.499 47.1403 282.733 47.4308 282.117 48.0117C281.501 48.581 281.141 49.3013 281.036 50.1727H287.763C287.67 49.2897 287.316 48.5636 286.7 47.9943ZM294.178 53.7975L297.559 46.4258H298.57L294.614 55H293.656L289.7 46.4258H290.763L294.143 53.7975H294.178ZM303.887 46.2341C305.2 46.2341 306.263 46.6814 307.076 47.576C307.89 48.4706 308.273 49.6266 308.227 51.044H300.471C300.506 51.9619 300.849 52.7345 301.5 53.3618C302.162 53.9776 302.981 54.2855 303.957 54.2855C304.677 54.2855 305.316 54.1112 305.874 53.7627C306.432 53.4141 306.832 52.9494 307.076 52.3685H308.087C307.785 53.2282 307.256 53.9195 306.501 54.4423C305.758 54.9535 304.892 55.2091 303.905 55.2091C302.615 55.2091 301.558 54.7793 300.733 53.9195C299.908 53.0598 299.496 52.0025 299.496 50.7478C299.496 49.4814 299.902 48.4125 300.715 47.5412C301.54 46.6698 302.598 46.2341 303.887 46.2341ZM306.153 47.9943C305.549 47.425 304.788 47.1403 303.87 47.1403C302.952 47.1403 302.185 47.4308 301.569 48.0117C300.954 48.581 300.593 49.3013 300.489 50.1727H307.216C307.123 49.2897 306.768 48.5636 306.153 47.9943ZM310.519 53.1004V42.4524H311.477V53.0133C311.477 53.722 311.826 54.0764 312.523 54.0764H314.039V55H312.436C311.82 55 311.344 54.8373 311.007 54.512C310.682 54.1867 310.519 53.7162 310.519 53.1004ZM319.701 55.2091C318.376 55.2091 317.284 54.7734 316.425 53.9021C315.576 53.0307 315.152 51.9619 315.152 50.6955C315.152 49.4407 315.576 48.3835 316.425 47.5237C317.284 46.664 318.376 46.2341 319.701 46.2341C321.002 46.2341 322.077 46.664 322.925 47.5237C323.773 48.3835 324.197 49.4407 324.197 50.6955C324.197 51.9619 323.773 53.0307 322.925 53.9021C322.077 54.7734 321.002 55.2091 319.701 55.2091ZM319.701 54.3029C320.735 54.3029 321.583 53.9544 322.245 53.2573C322.907 52.5602 323.239 51.7063 323.239 50.6955C323.239 49.6963 322.907 48.854 322.245 48.1685C321.583 47.4831 320.735 47.1403 319.701 47.1403C318.644 47.1403 317.778 47.4831 317.104 48.1685C316.442 48.854 316.111 49.6963 316.111 50.6955C316.111 51.7063 316.448 52.5602 317.122 53.2573C317.796 53.9544 318.655 54.3029 319.701 54.3029ZM331.119 46.2341C332.408 46.2225 333.465 46.6466 334.29 47.5063C335.127 48.366 335.545 49.4291 335.545 50.6955C335.545 51.9735 335.127 53.0482 334.29 53.9195C333.454 54.7909 332.402 55.2207 331.136 55.2091C330.334 55.2091 329.62 55.0232 328.992 54.6515C328.365 54.2681 327.877 53.7627 327.529 53.1353H327.476V58.4854H326.535V46.4258H327.476V48.2382H327.529C327.877 47.6341 328.365 47.1519 328.992 46.7918C329.631 46.42 330.34 46.2341 331.119 46.2341ZM330.997 54.2855C332.054 54.2855 332.914 53.9427 333.576 53.2573C334.25 52.5602 334.587 51.7063 334.587 50.6955C334.587 49.6963 334.25 48.854 333.576 48.1685C332.914 47.4831 332.054 47.1403 330.997 47.1403C329.963 47.1403 329.114 47.4831 328.452 48.1685C327.802 48.854 327.476 49.6963 327.476 50.6955C327.476 51.7063 327.802 52.5602 328.452 53.2573C329.114 53.9427 329.963 54.2855 330.997 54.2855ZM347.768 46.2341C348.755 46.2341 349.54 46.5594 350.121 47.21C350.702 47.849 350.992 48.703 350.992 49.7718V55H350.033V49.859C350.033 49.0457 349.819 48.3951 349.389 47.9071C348.959 47.4075 348.366 47.1578 347.611 47.1578C346.786 47.1578 346.13 47.4656 345.642 48.0814C345.165 48.6855 344.927 49.3826 344.927 50.1727V55H343.969V49.8415C343.969 49.0167 343.748 48.366 343.307 47.8897C342.865 47.4017 342.284 47.1578 341.564 47.1578C340.692 47.1694 340.019 47.5295 339.542 48.2382C339.078 48.9353 338.845 49.6847 338.845 50.4864V55H337.887V46.4432H338.81V48.1163H338.845C339.519 46.8615 340.483 46.2341 341.738 46.2341C342.424 46.2341 343.016 46.4142 343.516 46.7744C344.027 47.1345 344.404 47.6283 344.648 48.2557H344.666C344.945 47.6631 345.34 47.181 345.851 46.8092C346.374 46.4258 347.013 46.2341 347.768 46.2341ZM357.598 46.2341C358.911 46.2341 359.974 46.6814 360.788 47.576C361.601 48.4706 361.984 49.6266 361.938 51.044H354.183C354.218 51.9619 354.56 52.7345 355.211 53.3618C355.873 53.9776 356.692 54.2855 357.668 54.2855C358.388 54.2855 359.027 54.1112 359.585 53.7627C360.143 53.4141 360.544 52.9494 360.788 52.3685H361.798C361.496 53.2282 360.968 53.9195 360.212 54.4423C359.469 54.9535 358.603 55.2091 357.616 55.2091C356.326 55.2091 355.269 54.7793 354.444 53.9195C353.619 53.0598 353.207 52.0025 353.207 50.7478C353.207 49.4814 353.613 48.4125 354.427 47.5412C355.252 46.6698 356.309 46.2341 357.598 46.2341ZM359.864 47.9943C359.26 47.425 358.499 47.1403 357.581 47.1403C356.663 47.1403 355.896 47.4308 355.281 48.0117C354.665 48.581 354.305 49.3013 354.2 50.1727H360.927C360.834 49.2897 360.48 48.5636 359.864 47.9943ZM368.657 46.2341C369.714 46.2341 370.562 46.571 371.201 47.2449C371.852 47.9187 372.177 48.825 372.177 49.9635V55H371.218V50.103C371.218 49.22 370.969 48.5113 370.469 47.9768C369.969 47.4308 369.313 47.1578 368.5 47.1578C367.559 47.1578 366.78 47.5005 366.165 48.186C365.56 48.8598 365.258 49.7137 365.258 50.7478V55H364.3V46.4258H365.241V48.2557H365.276C365.624 47.6399 366.095 47.1519 366.687 46.7918C367.28 46.42 367.936 46.2341 368.657 46.2341ZM380.586 46.4258V47.3495H376.317V53.0133C376.317 53.3386 376.41 53.5942 376.595 53.7801C376.781 53.966 377.037 54.0589 377.362 54.0589H380.586V55H377.258C376.642 55 376.171 54.8373 375.846 54.512C375.521 54.1867 375.358 53.722 375.358 53.1179V47.3495H373.79V46.4258H375.358V43.3238H376.317V46.4258H380.586Z" fill="white"/>
</svg>
