<svg width="177" height="39" viewBox="0 0 177 39" fill="none" xmlns="http://www.w3.org/2000/svg">
<path fill-rule="evenodd" clip-rule="evenodd" d="M22.9894 25.0662H28.8011H29.7621C30.9062 28.2821 33.4689 30.5554 36.5349 30.7772H36.9468C41.0653 30.7772 44.4975 26.8405 44.7721 21.9058V21.2959V21.1295C44.6805 15.973 41.2026 11.8145 36.9468 11.8145C36.718 11.8145 36.4891 11.8145 36.2603 11.87C33.24 12.2027 30.7231 14.5869 29.6706 17.8582L29.7164 17.8028C29.7164 18.6899 30.3113 19.4107 31.0435 19.4107H40.3332V20.5751V22.7375H22.669C22.6671 22.7192 22.6653 22.7008 22.6636 22.6823H22.5777L22.5778 22.6823C22.5967 22.4989 22.6156 22.3156 22.6313 22.1283C22.6233 21.8649 22.6233 21.5994 22.6233 21.3513C22.6233 21.3095 22.6234 21.2677 22.6236 21.226C22.6374 17.0946 23.8704 13.295 25.8726 10.3178C25.8774 10.3249 25.8823 10.3321 25.8871 10.3393C28.5131 6.47335 32.4907 3.99658 36.9468 3.99658C37.7247 3.99658 38.5027 4.05203 39.2806 4.21837C45.2297 5.38274 49.9432 11.0383 51.0415 18.1354C51.133 18.8562 51.2245 19.6325 51.2703 20.4087C51.2703 20.541 51.2807 20.686 51.2916 20.8375C51.3035 21.0035 51.316 21.1774 51.316 21.3513L51.2703 21.2959C51.2703 30.8327 44.8636 38.5952 36.9468 38.5952C36.5349 38.5952 36.1231 38.5952 35.6654 38.5397C31.7188 38.1209 28.2437 35.7685 25.8794 32.271C24.6456 34.0897 23.1172 35.6071 21.3876 36.71C19.4199 37.9298 17.2233 38.5952 14.8894 38.5952C12.5556 38.5952 10.359 37.9298 8.39122 36.71C3.76926 33.8268 0.565918 28.0049 0.565918 21.2959C0.565918 20.187 0.657442 19.078 0.84049 18.0245C1.11506 16.472 1.52692 14.975 2.07606 13.5888C4.40993 7.87784 9.2607 3.99658 14.8894 3.99658C15.164 3.99658 15.4386 3.99658 15.6674 4.05203C19.3283 4.27381 22.6232 6.21444 25.0486 9.1531C23.4927 11.371 22.3944 14.0324 21.7995 16.9156C20.93 14.9195 19.4656 13.3116 17.7267 12.4799C16.8572 12.0363 15.8962 11.8145 14.8894 11.8145C12.6928 11.8145 10.6793 12.9235 9.2607 14.6978C7.88784 16.4166 7.06412 18.7453 7.06412 21.2959C7.06412 21.684 7.06412 22.0721 7.10988 22.5157C7.52174 26.6742 10.2217 30.001 13.6081 30.6663C14.0199 30.7772 14.4318 30.7772 14.8894 30.7772C18.047 30.7772 20.7927 28.5039 22.0283 25.2326C22.0741 25.1217 22.0741 25.0662 22.0741 25.0662H22.9894Z" fill="#4CC8AF"/>
<path d="M67.7607 9.02014C67.7229 8.54761 67.5457 8.17904 67.2291 7.91442C66.9173 7.6498 66.4424 7.5175 65.8044 7.5175C65.3981 7.5175 65.0649 7.56711 64.805 7.66634C64.5499 7.76085 64.3609 7.89079 64.238 8.05618C64.1151 8.22157 64.0514 8.41058 64.0466 8.62322C64.0372 8.79805 64.0679 8.95635 64.1388 9.09811C64.2144 9.23515 64.3325 9.36037 64.4932 9.47377C64.6538 9.58246 64.8594 9.68169 65.1098 9.77147C65.3603 9.86125 65.658 9.94158 66.0029 10.0125L67.1937 10.2676C67.997 10.4377 68.6845 10.6622 69.2563 10.941C69.828 11.2198 70.2959 11.5482 70.6597 11.9262C71.0236 12.2995 71.2905 12.7201 71.4606 13.1879C71.6355 13.6557 71.7253 14.166 71.73 14.7189C71.7253 15.6734 71.4866 16.4814 71.0141 17.143C70.5416 17.8045 69.8659 18.3077 68.9869 18.6527C68.1128 18.9976 67.0614 19.1701 65.8328 19.1701C64.5711 19.1701 63.4701 18.9835 62.5298 18.6102C61.5942 18.2369 60.8665 17.6627 60.3467 16.8878C59.8317 16.1081 59.5718 15.1111 59.567 13.8967H63.3095C63.3331 14.3408 63.4442 14.7141 63.6426 15.0166C63.8411 15.319 64.1199 15.5482 64.479 15.7041C64.8428 15.86 65.2752 15.938 65.7761 15.938C66.1966 15.938 66.5487 15.886 66.8322 15.7821C67.1157 15.6781 67.3307 15.534 67.4772 15.3497C67.6237 15.1654 67.6993 14.9551 67.704 14.7189C67.6993 14.4968 67.6261 14.303 67.4843 14.1377C67.3473 13.9675 67.1204 13.8163 66.8039 13.684C66.4873 13.547 66.0596 13.4194 65.5209 13.3013L64.075 12.9894C62.7897 12.7106 61.7761 12.2452 61.0342 11.5931C60.2971 10.9363 59.9309 10.0408 59.9356 8.90674C59.9309 7.9853 60.1766 7.17964 60.6728 6.48974C61.1736 5.79512 61.8659 5.25407 62.7495 4.8666C63.6379 4.47912 64.6562 4.28538 65.8044 4.28538C66.9763 4.28538 67.9899 4.48148 68.8452 4.87368C69.7005 5.26588 70.3596 5.81875 70.8227 6.53227C71.2905 7.24106 71.5268 8.07036 71.5315 9.02014H67.7607ZM79.5289 19.1985C78.3475 19.1985 77.3363 18.9646 76.4952 18.4968C75.6541 18.0242 75.0091 17.3674 74.5602 16.5263C74.1113 15.6805 73.8869 14.7 73.8869 13.5848C73.8869 12.4696 74.1113 11.4915 74.5602 10.6504C75.0091 9.80455 75.6541 9.14773 76.4952 8.67992C77.3363 8.20739 78.3475 7.97113 79.5289 7.97113C80.7102 7.97113 81.7214 8.20739 82.5625 8.67992C83.4036 9.14773 84.0486 9.80455 84.4975 10.6504C84.9464 11.4915 85.1709 12.4696 85.1709 13.5848C85.1709 14.7 84.9464 15.6805 84.4975 16.5263C84.0486 17.3674 83.4036 18.0242 82.5625 18.4968C81.7214 18.9646 80.7102 19.1985 79.5289 19.1985ZM79.5572 16.3066C79.888 16.3066 80.1739 16.1955 80.4149 15.9734C80.6559 15.7513 80.8425 15.4348 80.9748 15.0237C81.1071 14.6125 81.1733 14.1235 81.1733 13.5564C81.1733 12.9847 81.1071 12.4956 80.9748 12.0892C80.8425 11.6781 80.6559 11.3615 80.4149 11.1394C80.1739 10.9174 79.888 10.8063 79.5572 10.8063C79.2076 10.8063 78.9075 10.9174 78.6571 11.1394C78.4066 11.3615 78.2152 11.6781 78.0829 12.0892C77.9506 12.4956 77.8845 12.9847 77.8845 13.5564C77.8845 14.1235 77.9506 14.6125 78.0829 15.0237C78.2152 15.4348 78.4066 15.7513 78.6571 15.9734C78.9075 16.1955 79.2076 16.3066 79.5572 16.3066ZM94.2775 8.11288V10.9481H86.9911V8.11288H94.2775ZM88.3803 19V7.80101C88.3803 6.90321 88.541 6.15897 88.8623 5.5683C89.1836 4.97764 89.6373 4.53582 90.2232 4.24286C90.8091 3.94989 91.499 3.8034 92.2929 3.8034C92.789 3.8034 93.271 3.8412 93.7388 3.91681C94.2114 3.99241 94.561 4.05857 94.7878 4.11527L94.2208 6.92211C94.0791 6.87958 93.9137 6.8465 93.7247 6.82287C93.5356 6.79452 93.3703 6.78035 93.2285 6.78035C92.8599 6.78035 92.6118 6.85831 92.4843 7.01425C92.3567 7.17018 92.2929 7.37574 92.2929 7.6309V19H88.3803ZM103.278 8.11288V10.9481H96.1048V8.11288H103.278ZM97.494 5.50451H101.407V15.4985C101.407 15.6498 101.433 15.7773 101.485 15.8813C101.537 15.9805 101.617 16.0561 101.726 16.1081C101.834 16.1554 101.974 16.179 102.144 16.179C102.262 16.179 102.399 16.1648 102.555 16.1365C102.716 16.1081 102.834 16.0845 102.909 16.0656L103.476 18.8157C103.301 18.8677 103.051 18.9315 102.725 19.0071C102.404 19.0827 102.021 19.1323 101.577 19.1559C100.679 19.2032 99.9252 19.111 99.3156 18.8795C98.7061 18.6432 98.2477 18.2723 97.9406 17.7667C97.6334 17.2611 97.4846 16.6279 97.494 15.8671V5.50451ZM106.05 19V4.48385H116.511V7.65926H109.99V10.1542H115.973V13.3296H109.99V15.8246H116.483V19H106.05ZM122.894 8.11288L124.482 11.4868L126.155 8.11288H130.039L127.119 13.5564L130.181 19H126.325L124.482 15.5411L122.696 19H118.783L121.874 13.5564L118.982 8.11288H122.894ZM132.428 23.0827V8.11288H136.312V10.0125H136.397C136.539 9.64389 136.747 9.30603 137.021 8.99888C137.295 8.68701 137.635 8.43893 138.042 8.25464C138.448 8.06563 138.921 7.97113 139.459 7.97113C140.178 7.97113 140.86 8.1625 141.508 8.54525C142.16 8.928 142.689 9.53048 143.096 10.3527C143.507 11.1749 143.712 12.2428 143.712 13.5564C143.712 14.8134 143.516 15.8553 143.124 16.6822C142.736 17.5092 142.217 18.1258 141.565 18.5322C140.917 18.9386 140.206 19.1418 139.431 19.1418C138.921 19.1418 138.465 19.0591 138.063 18.8937C137.666 18.7236 137.326 18.4944 137.042 18.2061C136.764 17.9132 136.549 17.5824 136.397 17.2138H136.341V23.0827H132.428ZM136.256 13.5564C136.256 14.0857 136.324 14.544 136.461 14.9315C136.603 15.3143 136.801 15.612 137.057 15.8246C137.316 16.0325 137.626 16.1365 137.985 16.1365C138.344 16.1365 138.649 16.0349 138.899 15.8317C139.155 15.6238 139.348 15.3284 139.481 14.9457C139.618 14.5582 139.686 14.0951 139.686 13.5564C139.686 13.0178 139.618 12.557 139.481 12.1743C139.348 11.7868 139.155 11.4915 138.899 11.2883C138.649 11.0804 138.344 10.9764 137.985 10.9764C137.626 10.9764 137.316 11.0804 137.057 11.2883C136.801 11.4915 136.603 11.7868 136.461 12.1743C136.324 12.557 136.256 13.0178 136.256 13.5564ZM151.566 19.1985C150.404 19.1985 149.402 18.9764 148.561 18.5322C147.724 18.0833 147.079 17.4406 146.626 16.6043C146.177 15.7632 145.952 14.7567 145.952 13.5848C145.952 12.4602 146.179 11.4773 146.633 10.6362C147.086 9.7951 147.727 9.14064 148.554 8.67283C149.381 8.20503 150.356 7.97113 151.481 7.97113C152.303 7.97113 153.047 8.09871 153.714 8.35388C154.38 8.60904 154.949 8.97998 155.422 9.46669C155.894 9.94867 156.258 10.5346 156.513 11.2245C156.769 11.9144 156.896 12.6917 156.896 13.5564V14.4637H147.171V12.309H153.295C153.291 11.9971 153.21 11.723 153.054 11.4868C152.903 11.2458 152.698 11.0591 152.438 10.9268C152.183 10.7898 151.892 10.7213 151.566 10.7213C151.249 10.7213 150.959 10.7898 150.694 10.9268C150.43 11.0591 150.217 11.2434 150.056 11.4797C149.9 11.7159 149.818 11.9924 149.808 12.309V14.6338C149.808 14.9835 149.881 15.2954 150.028 15.5694C150.174 15.8435 150.385 16.0585 150.659 16.2144C150.933 16.3704 151.264 16.4483 151.651 16.4483C151.92 16.4483 152.166 16.4105 152.388 16.3349C152.615 16.2593 152.809 16.1506 152.969 16.0089C153.13 15.8624 153.248 15.6876 153.324 15.4844H156.896C156.773 16.2404 156.483 16.8972 156.024 17.4548C155.566 18.0077 154.959 18.4377 154.203 18.7448C153.451 19.0473 152.572 19.1985 151.566 19.1985ZM159.491 19V8.11288H163.29V10.1826H163.403C163.602 9.41707 163.916 8.85712 164.346 8.50272C164.781 8.14832 165.289 7.97113 165.87 7.97113C166.04 7.97113 166.208 7.9853 166.373 8.01365C166.543 8.03728 166.706 8.07272 166.862 8.11997V11.4584C166.668 11.3923 166.43 11.3426 166.146 11.3096C165.863 11.2765 165.619 11.2599 165.416 11.2599C165.033 11.2599 164.689 11.3474 164.381 11.5222C164.079 11.6923 163.84 11.9333 163.666 12.2452C163.491 12.5523 163.403 12.9138 163.403 13.3296V19H159.491ZM176.084 8.11288V10.9481H168.911V8.11288H176.084ZM170.3 5.50451H174.213V15.4985C174.213 15.6498 174.239 15.7773 174.291 15.8813C174.343 15.9805 174.423 16.0561 174.532 16.1081C174.64 16.1554 174.78 16.179 174.95 16.179C175.068 16.179 175.205 16.1648 175.361 16.1365C175.522 16.1081 175.64 16.0845 175.715 16.0656L176.282 18.8157C176.108 18.8677 175.857 18.9315 175.531 19.0071C175.21 19.0827 174.827 19.1323 174.383 19.1559C173.485 19.2032 172.731 19.111 172.122 18.8795C171.512 18.6432 171.054 18.2723 170.747 17.7667C170.44 17.2611 170.291 16.6279 170.3 15.8671V5.50451Z" fill="#4CC8AF"/>
</svg>
