<svg width="23" height="20" viewBox="0 0 23 20" fill="none" xmlns="http://www.w3.org/2000/svg">
<path d="M0.403306 9.59984L5.69112 11.5653L7.75245 18.1766C7.84208 18.6233 8.37982 18.7126 8.73832 18.4446L11.6959 16.0324C11.9648 15.7644 12.4129 15.7644 12.7714 16.0324L18.0592 19.8741C18.4177 20.1421 18.9554 19.9634 19.045 19.5167L22.9885 0.755067C23.0781 0.308361 22.63 -0.138341 22.1819 0.0403416L0.403306 8.43841C-0.134435 8.61709 -0.134435 9.42116 0.403306 9.59984ZM7.48359 10.5826L17.8799 4.23937C18.0592 4.15003 18.2384 4.41806 18.0592 4.5074L9.54492 12.4588C9.27605 12.7268 9.00718 13.0841 9.00718 13.5309L8.73832 15.675C8.73832 15.9431 8.29019 16.0324 8.20057 15.675L7.12508 11.744C6.85621 11.2973 7.03547 10.7613 7.48359 10.5826Z" fill="#3E496A"/>
</svg>
