<svg width="29" height="18" viewBox="0 0 29 18" fill="none" xmlns="http://www.w3.org/2000/svg">
<path fill-rule="evenodd" clip-rule="evenodd" d="M11.8671 0.816572C10.7305 0.920214 10.2814 1.06878 9.87051 1.47699C9.55411 1.79129 9.55337 1.9215 9.86779 1.97431C11.0064 2.16555 11.3517 2.8531 11.4217 5.0687C11.5625 9.52406 10.1887 10.0432 8.1442 6.30722C7.61936 5.34827 6.56958 3.25494 6.28479 2.59954C5.99308 1.92815 5.86717 1.77097 5.49323 1.61108L5.20566 1.48813L2.87227 1.50508C-0.441398 1.52912 -0.389912 1.48273 0.566077 3.58518C2.80544 8.50988 5.97099 13.2317 8.10047 14.8236C10.4509 16.5807 11.7984 17.0721 14.4203 17.1285C16.735 17.1782 16.8749 17.0948 16.9902 15.5961C17.0721 14.5319 17.2485 14.0283 17.6858 13.6107C18.2516 13.0705 18.7471 13.3238 20.1239 14.8567C21.5028 16.3921 22.1441 16.8899 23.0332 17.1148C23.4496 17.2201 28.0566 17.1509 28.3494 17.0349C29.6618 16.515 29.0389 15.2401 26.0212 12.2699C23.6798 9.96542 23.6462 10.3513 26.5166 6.58871C28.4334 4.07603 29.2371 2.5049 28.9186 1.89274C28.7089 1.48965 28.2529 1.45238 24.534 1.53424L22.5309 1.57832L22.3534 1.78358C22.2557 1.89651 22.051 2.28917 21.8985 2.65617C20.6389 5.68712 18.5466 8.75612 17.7398 8.75612C17.0335 8.75612 16.9613 8.3952 16.9821 4.96579L16.9994 2.10435L16.881 1.75081C16.6 0.911544 14.7024 0.557946 11.8671 0.816572Z" fill="#3E496A"/>
</svg>
