<svg width="28" height="20" viewBox="0 0 28 20" fill="none" xmlns="http://www.w3.org/2000/svg">
<path fill-rule="evenodd" clip-rule="evenodd" d="M11.7476 0.013462C6.0312 0.10665 3.25605 0.361799 2.28919 0.883114C0.494288 1.85096 0.00287785 3.80361 1.36749e-05 9.98008C-0.00355193 17.502 0.688467 19.1396 4.06112 19.5908C8.33675 20.1628 21.1007 20.1271 24.4408 19.5338C25.9087 19.273 26.9408 18.4146 27.3754 17.0931C28.0735 14.9701 28.222 7.68784 27.6393 4.14826C27.245 1.75229 26.2465 0.741934 23.9642 0.429561C21.9012 0.14714 15.9599 -0.0551932 11.7476 0.013462ZM14.8215 7.85957C16.7958 9.01849 18.4075 9.98812 18.4029 10.0144C18.3964 10.0521 13.2116 13.1229 11.5577 14.0687L11.1923 14.2776V10.015C11.1923 7.67057 11.2012 5.7524 11.212 5.7524C11.2228 5.7524 12.8471 6.70059 14.8215 7.85957Z" fill="#3E496A"/>
</svg>
