<svg width="21" height="21" viewBox="0 0 21 21" fill="none" xmlns="http://www.w3.org/2000/svg">
<rect width="21" height="21" fill="#F5F5F5"/>
<g id="&#208;&#186;&#208;&#181;&#208;&#185;&#209;&#129; &#209;&#136;&#208;&#176;&#208;&#177;&#208;&#187;&#208;&#190;&#208;&#189;" clip-path="url(#clip0_314_4)">
<rect width="1920" height="4220" transform="translate(-241 -2270)" fill="#EBEFF2"/>
<g id="Frame 1323">
<g id="Frame" clip-path="url(#clip1_314_4)">
<path id="Vector" fill-rule="evenodd" clip-rule="evenodd" d="M10.5 0C4.70099 0 0 4.70099 0 10.5C0 16.299 4.70099 21 10.5 21C16.299 21 21 16.299 21 10.5C21 4.70099 16.299 0 10.5 0ZM15.6389 9.01908L10.2702 13.8795C10.1386 13.9987 9.98515 14.079 9.8245 14.1211C9.68597 14.1828 9.53729 14.2148 9.38805 14.2148C9.12247 14.2148 8.85647 14.1169 8.64843 13.9196L5.34289 10.7817C4.9126 10.3732 4.89503 9.69332 5.30348 9.26303C5.71158 8.83274 6.3917 8.81496 6.8222 9.22348L9.45329 11.7209L14.1968 7.42609C14.6365 7.02793 15.3159 7.06153 15.714 7.50141C16.1122 7.94136 16.0786 8.62071 15.6389 9.01908Z" fill="#4CC8AF"/>
</g>
</g>
</g>
<defs>
<clipPath id="clip0_314_4">
<rect width="1920" height="4220" fill="white" transform="translate(-241 -2270)"/>
</clipPath>
<clipPath id="clip1_314_4">
<rect width="21" height="21" fill="white"/>
</clipPath>
</defs>
</svg>
