<svg width="80" height="79" viewBox="0 0 80 79" fill="none" xmlns="http://www.w3.org/2000/svg">
<path fill-rule="evenodd" clip-rule="evenodd" d="M7.55835 0.174144C4.43022 0.859448 1.79123 3.5604 1.1169 6.76688C0.792414 8.31039 0.792414 70.6647 1.1169 72.2082C1.72921 75.1197 3.86659 77.5383 6.76143 78.5949L7.7145 78.9427L39.9358 78.9812C75.3815 79.0237 73.1829 79.0771 75.1979 78.1245C77.2921 77.1345 79.1971 74.6351 79.7075 72.2082C79.982 70.9028 80.0402 24.1623 79.7694 22.517C79.3927 20.2288 77.6968 17.7808 75.6759 16.6086C73.574 15.3892 73.9268 15.4267 63.9971 15.3646L55.1776 15.3094L55.1172 11.1113C55.0611 7.21019 55.0332 6.84594 54.7237 5.96168C53.7722 3.24359 51.895 1.31607 49.2831 0.375592L48.33 0.0324272L28.3888 0.00592861C12.2593 -0.015446 8.2777 0.0166159 7.55835 0.174144ZM15.5974 4.68067C15.6357 4.78139 16.2115 6.51068 16.8768 8.5237C18.1769 12.4572 18.4329 13.0146 19.136 13.4426C19.7879 13.8395 35.9335 13.8767 36.764 13.4833C37.5644 13.104 37.7973 12.6199 39.1684 8.48329L40.4651 4.57087L43.8843 4.53002C47.7406 4.4839 48.1245 4.55476 49.1821 5.50652C50.3712 6.57686 50.453 6.95706 50.4547 11.4151C50.4558 14.4506 50.4149 15.3317 50.2728 15.3325C45.8823 15.3614 42.281 18.1361 41.4392 22.139C41.2883 22.8567 41.2231 24.1181 41.2212 26.3481L41.2187 29.5323H37.3331H33.4475V27.3825C33.4475 24.5131 33.0524 23.6903 31.4992 23.3249C30.4469 23.0773 30.6491 22.9268 22.9653 29.6787C20.7201 31.6514 18.4797 33.6009 17.9864 34.0108C16.0209 35.6442 15.9401 37.0304 17.7212 38.5562C18.1782 38.9476 20.7132 41.1581 23.3547 43.4685C30.7994 49.9796 30.4679 49.7403 31.6101 49.4254C33.0771 49.0211 33.4475 48.2138 33.4475 45.4215V43.294H37.3331H41.2187V54.2741V65.2542H23.4035H5.58842V36.3383C5.58842 7.53769 5.58959 7.41998 5.88754 6.78709C6.29017 5.93181 6.97595 5.25632 7.86113 4.84288C8.5645 4.5145 8.73517 4.50045 12.061 4.49913C14.7004 4.49796 15.5442 4.54129 15.5974 4.68067ZM35.6477 4.60747C35.6482 4.66793 35.3098 5.72187 34.8957 6.94989L34.1428 9.1825H28.0236H21.9044L21.1496 6.94989C20.7343 5.72187 20.3953 4.66793 20.3962 4.60747C20.397 4.547 23.8288 4.49766 28.0223 4.49766C32.2158 4.49766 35.6473 4.547 35.6477 4.60747ZM52.5907 23.2502C54.5162 28.0787 53.8609 27.6878 60.1286 27.7482C66.4529 27.8093 66.6418 27.7582 67.4664 25.7622C67.724 25.1382 68.0242 24.4302 68.1334 24.1886C68.2427 23.9471 68.6598 22.9259 69.0604 21.9194L69.789 20.0894H71.1611C73.2363 20.0894 74.629 20.9876 75.0826 22.6185C75.184 22.9824 75.2347 30.1633 75.2351 44.2097L75.236 65.2556L60.5367 65.2183L45.8374 65.181L45.7991 58.9223L45.761 52.6637H49.7214H53.6819V54.8502C53.6819 57.6006 53.8633 58.0969 55.0498 58.5919C55.9675 58.9747 56.9036 58.724 57.8725 57.8357C58.1207 57.6081 60.0643 55.9065 62.1912 54.0545C69.2913 47.8725 70.1111 47.1193 70.3428 46.5658C70.6316 45.8756 70.5875 45.2056 70.2117 44.5718C69.8212 43.9134 57.5033 33.1071 56.8024 32.808C56.1498 32.5296 55.5288 32.5562 54.8715 32.891C53.8664 33.403 53.7646 33.6981 53.6819 36.3399L53.6086 38.6824L49.6863 38.7213L45.7641 38.7604L45.765 31.0352C45.7658 22.7314 45.7765 22.6002 46.5397 21.6073C47.4578 20.4129 48.3152 20.0323 50.1089 20.0226L51.3011 20.0162L52.5907 23.2502ZM64.8255 20.1654C64.8255 20.2474 64.5645 20.9227 64.2455 21.666L63.6654 23.0174L60.5324 23.0568L57.3993 23.0962L56.8602 21.7364C56.5637 20.9884 56.3212 20.2954 56.3212 20.1964C56.3212 20.0579 57.3052 20.0162 60.5734 20.0162C63.3628 20.0162 64.8255 20.0674 64.8255 20.1654ZM28.8104 31.6599C28.9303 32.6789 29.3918 33.4044 30.158 33.7792C30.7193 34.0537 31.0591 34.0707 35.9864 34.0707H41.2187V36.4131V38.7556H35.9864C30.9941 38.7556 30.7253 38.7695 30.1268 39.0588C29.3409 39.4387 28.9385 40.0773 28.8129 41.1448C28.7591 41.6022 28.6743 41.9764 28.6246 41.9764C28.5749 41.9764 27.769 41.301 26.8339 40.4758C25.8985 39.6505 24.4968 38.4174 23.7186 37.7356C22.9405 37.0536 22.3038 36.4464 22.3038 36.3858C22.3038 36.3251 23.0076 35.6643 23.8681 34.9169C24.7283 34.1697 26.1305 32.9496 26.9839 32.2054C27.8372 31.4613 28.5759 30.8519 28.6252 30.8512C28.6746 30.8505 28.7579 31.2144 28.8104 31.6599ZM60.0602 41.488C63.9598 44.8959 64.6789 45.5518 64.6789 45.7008C64.6789 45.7879 64.1399 46.3195 63.4811 46.8824C62.8225 47.4452 62.2121 47.9722 62.1248 48.0535C61.3019 48.8214 58.3786 51.3461 58.3125 51.3461C58.2657 51.3461 58.2273 51.0375 58.2273 50.6603C58.2273 49.7646 57.7828 48.8772 57.1042 48.418L56.5631 48.052L51.1599 48.0087L45.7567 47.9654L45.7971 45.6663L45.8374 43.3672L51.2887 43.294C56.5054 43.224 56.7575 43.2078 57.1448 42.9189C57.8486 42.3939 58.0999 41.9247 58.1863 40.974C58.2313 40.4786 58.3084 40.0743 58.3577 40.0758C58.4069 40.0773 59.1731 40.7128 60.0602 41.488ZM41.2701 71.0234C41.3519 72.0863 41.6387 73.3048 42.0232 74.223C42.1989 74.6427 8.58488 74.5449 7.73415 74.1233C6.4305 73.4772 5.58842 72.123 5.58842 70.6726V69.7926H23.3818H41.1754L41.2701 71.0234ZM75.2089 70.7808C75.1152 72.3163 74.3727 73.4878 73.0903 74.1233C72.5453 74.3934 72.0595 74.4043 60.5 74.4043H48.4767L47.7941 74.0036C46.5629 73.2809 45.7641 71.8812 45.7641 70.4463V69.7926H60.5166H75.2691L75.2089 70.7808Z" fill="#4CC8AF"/>
</svg>
