<svg width="76" height="79" viewBox="0 0 76 79" fill="none" xmlns="http://www.w3.org/2000/svg">
<path fill-rule="evenodd" clip-rule="evenodd" d="M30.2869 0.299772C27.7788 1.21567 27.0175 2.4464 25.925 7.35083L25.2044 10.5857L23.4204 11.4798C22.4391 11.9715 20.9698 12.8182 20.1552 13.3614L18.6738 14.3491L15.4824 13.3223C8.74145 11.1542 8.09433 11.5076 3.19444 20.0337L0 25.5923L0.0873942 27.4873C0.194995 29.8272 0.520072 30.3411 3.81074 33.3756L6.19161 35.5712L6.21131 39.4792L6.23076 43.3874L3.89435 45.4807C0.607718 48.4255 0.186408 49.0882 0.0858788 51.4685L0.00505169 53.3852L3.19696 58.9438C8.07917 67.4457 8.66618 67.7688 15.3816 65.6507L18.7011 64.604L20.1689 65.6002C20.9759 66.148 22.4399 67.0035 23.4222 67.5015L25.2077 68.4065L25.9228 71.6341C27.4716 78.627 28.2817 79.1121 38.1989 78.984C47.0697 78.8696 47.6099 78.5232 49.0792 72.0125L49.8933 68.4053L51.9304 67.3729C53.0506 66.8049 54.5148 65.9499 55.1839 65.4726L56.4009 64.605L59.7186 65.6515C66.427 67.767 67.0448 67.4282 71.8722 58.9888C76.4478 50.9895 76.4144 50.1314 71.3506 45.6126L68.8697 43.3985L68.8793 39.5065L68.8892 35.6144L70.7737 33.8999C76.6642 28.5406 76.6766 28.1685 71.2705 18.8968C67.0448 11.6499 66.2277 11.2545 59.7188 13.3071L56.4279 14.345L54.6924 13.1724C53.7379 12.5276 52.2691 11.6848 51.4283 11.2994L49.8996 10.5991L49.0795 6.97866C48.1416 2.83853 47.6137 1.83268 45.8269 0.782106L44.6216 0.0733866L37.9281 0.0135055C32.7701 -0.0324791 31.0171 0.0332132 30.2869 0.299772ZM43.436 4.96468C43.6173 5.07965 44.1586 6.9256 44.6388 9.06666C45.7969 14.2324 45.6259 13.9426 48.2207 15.1344C49.4364 15.6927 51.5204 16.8815 52.8521 17.7759C55.7373 19.7136 55.5128 19.699 60.0904 18.2499C64.887 16.7317 64.2757 16.428 67.4947 21.9287C70.8174 27.6063 70.7856 27.3031 68.3014 29.5889C67.2249 30.5796 65.823 31.9049 65.1863 32.5337L64.0287 33.6775L64.079 39.4888C64.1065 42.685 64.1441 45.3698 64.1628 45.4549C64.1815 45.54 65.5609 46.844 67.2279 48.3529C70.7846 51.5721 70.7383 51.4094 68.9672 54.4512C63.888 63.1757 65.0951 62.33 60.0379 60.7074C55.5802 59.2771 55.3875 59.2811 53.3358 60.8464C52.4328 61.5354 50.4083 62.735 48.837 63.5122C45.5264 65.1497 45.7974 64.7379 44.6224 69.9197C44.1359 72.0653 43.5956 73.9113 43.4221 74.0215C43.0182 74.2779 32.0929 74.2862 31.6908 74.0303C31.5248 73.9247 30.9775 72.0221 30.4746 69.802C29.468 65.3602 29.1793 64.7209 27.9955 64.3129C26.5754 63.8237 23.6144 62.1685 21.8079 60.8542C19.6458 59.2811 19.5602 59.2793 15.0778 60.7175C10.2032 62.2817 10.9387 62.6489 7.65635 57.0135C4.29773 51.2472 4.34471 51.6618 6.79352 49.3881C11.7909 44.7482 11.3721 45.533 11.066 41.3837C10.9584 39.9246 10.9715 37.8298 11.095 36.7287C11.4181 33.8526 11.4252 33.8665 8.03169 30.7224C6.31335 29.1304 4.93247 27.6475 4.89004 27.3486C4.75996 26.4334 10.3171 17.1281 10.9937 17.1281C11.2996 17.1281 13.1374 17.6375 15.0778 18.2601C19.5852 19.706 19.6516 19.7043 21.8478 18.0756C22.8316 17.3459 24.8887 16.1238 26.4193 15.3595C29.6385 13.752 29.3534 14.2081 30.6027 8.66695C31.0409 6.72322 31.5327 5.04781 31.6958 4.94397C32.1028 4.68524 43.0255 4.70419 43.436 4.96468ZM38.4032 27.081C37.3633 28.1212 32.4187 50.1082 32.9805 51.1944C33.7289 52.6424 35.5983 52.9938 36.6983 51.8935C37.5507 51.0408 42.6676 29.0144 42.2594 27.955C41.676 26.4413 39.5292 25.9546 38.4032 27.081ZM21.9488 33.2025C15.9929 38.5279 15.7378 38.8591 16.3541 40.4656C16.4857 40.8089 20.058 44.115 24.3754 47.8898C26.4688 49.7201 28.19 49.7123 28.9598 47.8693C29.5827 46.3779 29.2533 45.8422 25.7705 42.686C23.9834 41.0664 22.5212 39.6214 22.521 39.4746C22.5207 39.3278 23.9832 37.8869 25.771 36.2726C29.2541 33.1272 29.5817 32.5969 28.9598 31.1082C27.9472 28.6842 26.5277 29.1084 21.9488 33.2025ZM46.8441 30.141C44.9505 31.4677 45.5155 32.8347 49.3982 36.3204C51.1471 37.8904 52.578 39.3162 52.578 39.4888C52.578 39.6613 51.1471 41.0871 49.3982 42.6572C45.9565 45.747 45.587 46.2892 46.0227 47.6096C46.7026 49.6706 48.5554 49.7919 50.7074 47.9161C57.6512 41.8638 58.8926 40.6134 58.8926 39.672C58.8926 38.4276 58.757 38.2598 55.1423 35.0283C53.2456 33.3329 51.5803 31.8237 51.4414 31.6747C49.7155 29.8224 48.0782 29.2764 46.8441 30.141Z" fill="#4CC8AF"/>
</svg>
