<svg width="80" height="79" viewBox="0 0 80 79" fill="none" xmlns="http://www.w3.org/2000/svg">
<path fill-rule="evenodd" clip-rule="evenodd" d="M8.34793 0.326876C6.81651 1.0838 6.73831 3.409 8.21599 4.25774C8.47605 4.40732 10.1625 4.48879 14.2345 4.54889L19.8916 4.63236L19.9748 17.1607C20.053 28.9336 20.0763 29.7169 20.3622 30.1544C21.0071 31.1419 20.0928 31.1012 40.593 31.0534L59.3815 31.0095L59.8322 30.5921C60.765 29.7287 60.7393 30.1174 60.7393 16.8218V4.54305L64.8574 4.58779L68.9754 4.63236L69.019 10.8797L69.0628 17.1271L69.4811 17.6774C70.6751 19.2481 73.1785 18.5251 73.4667 16.5263C73.5229 16.1365 73.5462 12.6114 73.5184 8.69277C73.4617 0.705672 73.5076 0.998659 72.2082 0.333888C71.3471 -0.106677 9.23893 -0.113522 8.34793 0.326876ZM56.0805 10.9771V17.4052L40.3155 17.3627L24.5504 17.3201L24.5068 10.9345L24.4632 4.54889H40.2719H56.0805V10.9771ZM56.0805 24.2483V26.5855H40.2739H24.4672V24.2483V21.9111H40.2739H56.0805V24.2483ZM8.2644 37.2741C7.03431 37.6477 6.428 38.939 6.90004 40.1792C7.33897 41.3323 7.91932 41.6105 9.8865 41.6105H11.4891V45.6171V49.6238H11.0213C8.97055 49.6238 6.10322 51.0174 4.15833 52.9596C-2.14337 59.2521 0.689188 69.7973 9.32611 72.1989C9.6464 72.2879 11.069 72.4098 12.4874 72.4697L15.0664 72.5786L15.1496 75.0909C15.2425 77.8957 15.3614 78.251 16.3686 78.7306C17.588 79.3111 18.1359 79.0812 21.0563 76.7628C22.1545 75.8911 23.1722 75.1752 23.3182 75.172C23.4641 75.1689 24.5872 75.9552 25.814 76.9196C28.7189 79.2031 29.5423 79.4493 30.7801 78.4042C31.4608 77.8296 31.6198 77.1141 31.6208 74.6236L31.6218 72.4951L54.9574 72.4944C78.0696 72.4939 78.2984 72.4906 78.8438 72.1569C79.817 71.5615 80.1448 70.1887 79.5483 69.207C79.0165 68.3318 78.5107 68.1081 76.8232 68.0009L75.2981 67.9041V60.9759V54.0478L76.8874 53.9643C78.6995 53.8691 79.2599 53.6124 79.6381 52.7045C79.9602 51.9308 79.9328 51.3089 79.5483 50.6762C78.9564 49.7024 78.5282 49.5466 76.2623 49.4814C75.1372 49.449 74.2166 49.4114 74.2168 49.3979C74.2168 49.3844 74.3695 48.9702 74.5562 48.4774C76.1874 44.1712 73.7659 39.2205 69.225 37.5778L68.1435 37.1864L38.4436 37.1574C21.9278 37.1414 8.53095 37.1931 8.2644 37.2741ZM68.4894 42.1996C71.2102 43.8799 71.1616 47.5496 68.3994 48.9976L67.5232 49.4568H41.8356H16.1479V45.5311V41.6053L41.9093 41.6497L67.6705 41.6939L68.4894 42.1996ZM70.7225 56.385V58.8057H41.173C7.91283 58.8057 10.9908 58.6765 10.3035 60.1013C9.90147 60.9342 9.97019 61.693 10.5099 62.3815C11.1043 63.1395 11.657 63.3132 13.4774 63.3132H15.1496V65.6504V67.9876H13.0736C9.46937 67.9876 7.34562 66.7938 5.95231 63.9846C5.15482 62.3766 5.15249 59.7811 5.94731 58.0977C6.88041 56.1216 8.87221 54.5658 11.0079 54.1449C11.4099 54.0656 25.01 53.9927 41.2306 53.9827L70.7225 53.9643V56.385ZM26.963 67.5702C26.963 69.9116 26.9013 71.8273 26.8259 71.8273C26.7504 71.8273 26.1399 71.4153 25.4692 70.9118C23.5604 69.4791 23.018 69.5021 20.9513 71.1043C20.3201 71.5938 19.7672 71.9942 19.7227 71.9942C19.6783 71.9942 19.642 70.041 19.642 67.6537V63.3132H23.3025H26.963V67.5702ZM70.7225 65.6504V67.9876H51.1722H31.6218V65.6504V63.3132H51.1722H70.7225V65.6504Z" fill="#4CC8AF"/>
</svg>
