<svg width="80" height="79" viewBox="0 0 80 79" fill="none" xmlns="http://www.w3.org/2000/svg">
<path fill-rule="evenodd" clip-rule="evenodd" d="M36.9242 0.108687C7.00747 3.00549 -9.03563 36.2041 7.36737 61.2718C20.3112 81.053 47.7456 84.9457 65.8901 69.5755C77.1613 60.0278 82.1306 44.612 78.6007 30.1451C78.0069 27.711 77.7307 27.164 76.8737 26.7237C75.6994 26.1202 74.5041 26.3785 73.6238 27.4254C73.046 28.1126 73.0358 29.1465 73.5856 31.3246C75.1019 37.3315 74.7475 45.036 72.6888 50.8318C68.6316 62.2533 59.0286 70.5983 46.988 73.1656C44.5109 73.6937 38.8414 73.9119 36.2973 73.577C18.7648 71.2688 6.04202 56.8872 6.04829 39.3841C6.05388 24.1942 16.1788 10.7563 30.7957 6.53921C34.2032 5.55619 36.2497 5.28524 40.2917 5.28236C44.0601 5.27981 44.8681 5.36685 48.3203 6.1478C50.39 6.61607 50.9941 6.54498 51.8656 5.73077C53.164 4.51786 52.7119 2.22624 51.0359 1.52536C48.4824 0.457682 41.0385 -0.289679 36.9242 0.108687ZM68.181 10.622C64.5402 14.2612 61.4855 17.2388 61.3926 17.2388C61.2997 17.2388 60.1566 16.1646 58.8526 14.8518C56.2414 12.2232 55.8579 11.9509 54.7677 11.9509C53.0825 11.9509 51.9331 13.4928 52.3608 15.1798C52.4981 15.7208 53.2023 16.5077 56.3692 19.6587C60.6998 23.9677 60.8557 24.0644 62.3611 23.3783C63.2433 22.9761 77.9707 8.27791 78.2564 7.5146C78.9369 5.69599 77.7736 4.00514 75.8418 4.00514H74.8003L68.181 10.622ZM37.0707 16.2288C28.0019 18.5723 24.1784 29.4268 29.8025 36.8629C30.257 37.4638 30.6287 37.9869 30.6287 38.0254C30.6287 38.0639 29.9791 38.5279 29.1852 39.0566C24.0867 42.4519 20.6881 48.5634 20.6123 54.4724C20.5875 56.4159 20.8432 56.9953 21.9868 57.5864C23.2096 58.2186 24.3768 57.9128 25.2598 56.7293C25.507 56.3981 25.6286 55.8404 25.7384 54.534C26.2717 48.199 29.9883 43.4286 35.8959 41.4965C37.6719 40.9158 38.3303 40.4203 38.6222 39.4455C39.0379 38.0568 38.3798 36.9039 36.6817 36.046C31.8385 33.5993 30.8554 27.2139 34.7231 23.3252C37.9241 20.1069 42.8849 20.2384 46.0453 23.6252C49.6718 27.5116 48.6348 33.5209 43.9041 36.0322C40.9464 37.6024 41.13 40.4168 44.2513 41.3577C50.2515 43.1663 54.0996 47.8802 54.7733 54.2469C55.0312 56.6845 55.2993 57.2438 56.426 57.6951C57.2903 58.0411 57.6766 58.0263 58.5046 57.6157C59.7135 57.0163 59.8742 56.6336 59.8571 54.3947C59.8118 48.4342 56.2521 42.107 51.1585 38.9334C50.504 38.5256 49.9654 38.1143 49.9616 38.0193C49.9577 37.9243 50.2459 37.4938 50.6018 37.0627C51.4562 36.028 52.3728 34.2508 52.8633 32.678C53.4422 30.8214 53.4418 27.0647 52.8624 25.2171C50.7464 18.4697 43.7684 14.4979 37.0707 16.2288Z" fill="#4CC8AF"/>
</svg>
