<svg width="80" height="79" viewBox="0 0 80 79" fill="none" xmlns="http://www.w3.org/2000/svg">
<path fill-rule="evenodd" clip-rule="evenodd" d="M8.04793 0.327347C4.39171 1.31843 1.8214 4.21644 1.19958 8.04849C0.854093 10.1788 0.847784 68.3035 1.19302 70.6908C1.75906 74.6079 4.37909 77.5834 8.12011 78.5581C10.3472 79.1385 70.4637 79.1513 72.687 78.572C75.732 77.7786 77.678 76.1864 79.0135 73.3957L79.7986 71.7548L79.8677 40.1998C79.9126 19.6673 79.848 8.22772 79.6822 7.45096C79.0536 4.50372 77.1854 2.17243 74.3897 0.847374L72.7324 0.0617796L41.061 0.0128062C14.173 -0.028594 9.18685 0.0188648 8.04793 0.327347ZM38.285 9.80017V15.1209L39.0226 15.8587L39.7603 16.5966H44.835C50.4322 16.5966 51.0886 16.7276 52.2182 18.0706C53.6443 19.766 53.7207 21.5725 52.4407 23.3401C51.185 25.0741 50.5929 25.2159 44.8514 25.1581C39.9152 25.1084 39.1952 25.2043 38.4866 26.0058C38.4589 26.0374 38.3736 28.5623 38.2973 31.6168L38.1588 37.1705L37.5279 37.2599C37.1809 37.3091 35.4898 37.2682 33.7697 37.1692L30.6424 36.9893L30.7838 33.9244C31.1361 26.2944 28.1087 22.2765 22.0076 22.2765C16.0953 22.2765 13.3054 25.6577 13.104 33.0684L12.9958 37.0443H9.22899H5.46223L5.53314 22.4242L5.60406 7.80412L6.36114 6.72923C6.77754 6.13802 7.61867 5.38979 8.23039 5.06691L9.3428 4.47949H23.8138H38.285V9.80017ZM72.6012 5.04748C73.2124 5.36 74.0599 6.05194 74.4843 6.58534L75.2561 7.55522L75.325 22.426L75.3939 37.2967H70.1091C62.7808 37.2967 63.2689 36.8196 63.2689 43.9819C63.2689 50.7995 62.6006 52.0645 58.9984 52.0645C55.35 52.0645 54.6885 50.7917 54.6885 43.7721C54.6885 36.7805 55.0789 37.0976 46.4237 37.0599L42.8275 37.0443V33.4051V29.7662L47.0546 29.6816L51.2816 29.5973L52.8798 28.7304C58.8308 25.5032 59.517 17.8116 54.2148 13.7642C52.5548 12.497 50.5415 12.0527 46.4603 12.0527H42.8275V8.26609V4.47949H57.1587H71.4898L72.6012 5.04748ZM24.5974 27.4609C26.2357 28.7663 26.4951 29.9606 26.2917 35.2618L26.1115 39.9633L26.7906 40.7708L27.47 41.5784L32.8143 41.6463L38.1588 41.7144L38.2285 45.4213L38.2984 49.1281L34.0645 49.2079C26.8086 49.3447 23.2694 52.2278 23.2694 58.0021C23.2694 63.8411 26.7121 66.6437 34.0645 66.7906L38.2981 66.8749L38.2285 70.5772L38.1588 74.2792H23.4801H8.80174L7.72996 73.5219C5.51876 71.9593 5.61339 72.7063 5.53491 56.1666L5.46601 41.5882H10.9092C16.3519 41.5882 16.3524 41.5882 16.9717 40.9685C17.6965 40.2437 17.6528 40.6741 17.594 34.8339C17.5365 29.1159 17.8921 28.0973 20.3673 26.8879C21.222 26.4703 23.7905 26.8182 24.5974 27.4609ZM50.146 45.3695C50.146 52.9983 52.9836 56.6089 58.9787 56.6082C64.8825 56.6074 67.5923 53.3545 67.7579 46.069L67.854 41.8407H71.6241H75.3941L75.325 56.5852L75.2561 71.3297L74.4722 72.2996C72.7786 74.3951 73.8267 74.2704 57.2513 74.3502L42.5272 74.4211L42.5784 69.4276C42.643 63.1756 42.6874 63.6399 41.9556 62.9081C41.3381 62.2901 41.3212 62.2883 36.0882 62.2843C31.1126 62.2802 30.7883 62.2505 29.8359 61.711C27.4395 60.3534 26.9852 57.1595 28.9006 55.1344C30.2318 53.7268 30.5476 53.666 36.1737 53.7321L41.3403 53.7929L42.021 53.1129L42.7013 52.4328L42.7783 47.0104L42.8553 41.5882H46.5006H50.146V45.3695Z" fill="#4CC8AF"/>
</svg>
