<svg width="80" height="79" viewBox="0 0 80 79" fill="none" xmlns="http://www.w3.org/2000/svg">
<path fill-rule="evenodd" clip-rule="evenodd" d="M44.2909 0.121505C32.0162 1.30446 21.4971 9.23901 17.0303 20.684C13.4212 29.9318 14.3172 40.5664 19.4169 49.0086L20.2151 50.3299L19.8538 50.6227C19.6551 50.7838 15.7037 54.2048 11.073 58.2249C4.31373 64.0931 2.5271 65.7229 2.01282 66.4902C-1.4072 71.5913 1.82002 78.3379 7.98324 78.9717C9.80773 79.1594 12.2895 78.3958 13.7209 77.2065C14.1128 76.8809 28.7236 60.1722 29.2435 59.4552C29.2653 59.4251 29.861 59.7474 30.5673 60.1715C43.3193 67.8281 59.5591 65.8173 70.1009 55.2762C86.649 38.7294 80.7288 10.7303 58.8752 2.18605C54.4822 0.468453 48.896 -0.322298 44.2909 0.121505ZM50.471 4.75726C67.9986 6.93488 79.1578 24.4536 73.6277 41.1111C68.7769 55.7223 53.07 63.6354 38.5108 58.8027C22.4623 53.4756 14.8154 35.2576 22.2737 20.1192C27.4589 9.59476 38.9625 3.32745 50.471 4.75726ZM42.7426 9.47613C41.552 9.79434 40.3754 10.62 39.7374 11.5855C38.9577 12.7652 38.726 13.8604 38.726 16.367V18.4972L35.6749 18.5062C32.1866 18.5164 31.1593 18.701 29.7114 19.5786C27.3073 21.0354 26.3671 23.1199 26.3671 26.9933C26.3671 29.432 26.641 30.7903 27.3804 32.018L27.912 32.9007V38.6829C27.912 45.1948 27.9963 45.9205 28.9353 47.4853C29.9305 49.1442 31.294 50.1685 33.152 50.6536C34.7036 51.0586 59.7418 51.0586 61.2935 50.6536C63.1515 50.1685 64.515 49.1442 65.5102 47.4853C66.4491 45.9205 66.5335 45.1948 66.5335 38.6829V32.9007L67.0651 32.018C67.8045 30.7903 68.0784 29.432 68.0784 26.9933C68.0784 23.1199 67.1382 21.0354 64.734 19.5786C63.2862 18.701 62.2589 18.5164 58.7706 18.5062L55.7195 18.4972V16.367C55.7195 13.8604 55.4877 12.7652 54.708 11.5855C54.0549 10.5971 52.8833 9.79017 51.6318 9.4667C50.3566 9.13721 43.9859 9.14401 42.7426 9.47613ZM50.8995 14.0484C51.0257 14.1746 51.0849 14.9134 51.0849 16.3655V18.4972H47.2227H43.3606V16.3655C43.3606 14.9134 43.4197 14.1746 43.546 14.0484C43.8089 13.7855 50.6366 13.7855 50.8995 14.0484ZM62.1969 23.4021C63.2689 23.9486 63.3665 24.2486 63.3665 26.9933C63.3665 30.5894 63.1002 30.8545 59.4854 30.8548L57.3036 30.8551L57.2283 30.0713C56.9422 27.0939 52.9518 27.0939 52.6657 30.0713L52.5905 30.8551H47.2227H41.855L41.7797 30.0713C41.4936 27.0939 37.5032 27.0939 37.2171 30.0713L37.1419 30.8551L34.9601 30.8548C31.3453 30.8545 31.0789 30.5894 31.0789 26.9933C31.0789 24.2486 31.1766 23.9486 32.2485 23.4021C33.0661 22.9852 61.3794 22.9852 62.1969 23.4021ZM37.2171 36.2731C37.5032 39.2506 41.4936 39.2506 41.7797 36.2731L41.855 35.4893H47.2227H52.5905L52.6657 36.2731C52.7938 37.6059 53.7108 38.5016 54.947 38.5016C56.1832 38.5016 57.1003 37.6059 57.2283 36.2731L57.3036 35.4893H59.6077H61.9117L61.8666 40.1898C61.8163 45.4486 61.8187 45.4371 60.6521 46.0319C59.8354 46.4483 34.61 46.4483 33.7934 46.0319C32.6267 45.4371 32.6292 45.4486 32.5788 40.1898L32.5337 35.4893H34.8377H37.1419L37.2171 36.2731ZM24.3472 55.3275L25.6418 56.6289L25.2471 57.0979C23.6943 58.9431 21.0657 61.9044 20.9806 61.9044C20.9238 61.9044 20.1503 61.1748 19.2615 60.2832C17.6542 58.6706 17.6473 58.6603 17.9512 58.3598C18.4906 57.8262 22.8882 54.0336 22.9718 54.0299C23.0161 54.0279 23.635 54.6118 24.3472 55.3275ZM16.0576 63.5673C17.0547 64.5669 17.8704 65.4413 17.8704 65.5107C17.8704 65.728 15.0774 68.8557 14.8834 68.8557C14.5997 68.8557 10.718 64.9004 10.7898 64.6846C10.872 64.4383 13.8817 61.7669 14.0879 61.7573C14.1741 61.7531 15.0606 62.5677 16.0576 63.5673ZM9.52532 70.1659L11.9134 72.5576L11.3001 73.1967C8.6548 75.9528 4.17902 73.4286 5.36115 69.8471C5.5334 69.3253 6.79015 67.7744 7.04072 67.7744C7.09387 67.7744 8.21188 68.8506 9.52532 70.1659Z" fill="#4CC8AF"/>
</svg>
