<svg width="70" height="79" viewBox="0 0 70 79" fill="none" xmlns="http://www.w3.org/2000/svg">
<path fill-rule="evenodd" clip-rule="evenodd" d="M8.32087 0.115857C7.15165 0.314043 5.89984 0.82118 4.87272 1.51272C-2.2425 6.3038 0.156354 16.9595 8.65548 18.3162L9.8247 18.5028L9.86545 45.6383C9.90621 72.7691 9.90621 72.774 10.2282 73.2065C11.1018 74.3806 9.7168 74.2802 25.6883 74.3267L39.9641 74.3684V75.7914C39.9641 77.4689 40.2041 78.1131 41.0172 78.6173C42.1659 79.3295 42.5839 79.1888 45.8951 76.9747C47.5275 75.8832 48.9701 74.9902 49.1011 74.9902C49.232 74.9902 50.5917 75.83 52.1225 76.8561C55.0454 78.8158 55.7302 79.1329 56.5377 78.9005C57.8459 78.5242 58.2507 77.8369 58.3561 75.8135L58.4319 74.3635L63.2119 74.3632C68.5487 74.3631 68.7359 74.3305 69.4334 73.2828L69.7878 72.7505V40.2978C69.7878 12.0811 69.7575 7.72839 69.5556 6.95069C68.7676 3.91523 66.5158 1.52102 63.3859 0.390654L62.3709 0.0242059L35.7482 0.00180223C21.1057 -0.0104179 8.76338 0.0408128 8.32087 0.115857ZM52.6119 4.6522C52.6119 4.74182 52.4804 5.07662 52.3196 5.39638C51.2868 7.45062 51.3227 11.6424 52.3864 13.1661C52.917 13.9261 54.0116 13.8894 30.8356 13.8894C6.0463 13.8894 8.11928 14.0045 6.62076 12.5434C4.00955 9.99711 5.23591 5.46281 8.74839 4.67711C9.72914 4.45762 52.6119 4.43334 52.6119 4.6522ZM62.535 4.95207C63.5077 5.37538 64.3271 6.19367 64.8155 7.22956L65.2593 8.17098L65.2595 38.9956L65.2596 69.8201H61.8244H58.3892V64.9416V60.063L58.8546 59.3042C62.9748 52.5856 59.2613 43.7064 51.6221 42.0105C49.8736 41.6223 47.1996 41.7443 45.5419 42.2878C38.4978 44.5974 35.5009 52.9551 39.4234 59.3508L39.9688 60.2397L39.9274 64.9908L39.8861 69.7418L27.1993 69.7819L14.5125 69.822V44.1274V18.4328H38.0954C63.8885 18.4328 62.3666 18.4889 63.06 17.512C63.7809 16.496 63.614 15.1395 62.6801 14.4247C62.2546 14.099 61.8936 13.9987 60.7641 13.8925C57.8894 13.622 56.2048 12.0078 56.0714 9.39629C55.8958 5.95631 59.3637 3.57197 62.535 4.95207ZM20.4491 23.4073C18.7684 24.2546 18.7727 26.5731 20.4568 27.4469C21.1966 27.8307 58.5615 27.7873 59.315 27.4018C60.9486 26.5661 60.9535 24.3 59.3235 23.4228C58.5092 22.9848 21.317 22.9698 20.4491 23.4073ZM20.7909 32.5292C18.9059 32.982 18.608 35.8363 20.3589 36.6698C20.8418 36.8998 22.6718 36.9195 40.0961 36.8824L59.301 36.8414L59.7188 36.4497C60.9227 35.3209 60.809 33.5549 59.4823 32.7757C58.9403 32.4573 58.7816 32.4545 40.1203 32.4302C29.7718 32.4169 21.0735 32.4614 20.7909 32.5292ZM20.9892 41.7603C18.9984 42.2605 18.5148 44.6917 20.1704 45.8766L20.6802 46.2415H26.0166C31.1629 46.2415 31.3685 46.2299 31.7843 45.9184C33.2966 44.7859 33.2436 42.9402 31.672 42.0114C31.1758 41.7182 30.8329 41.6964 26.3014 41.6699C23.6392 41.6545 21.2487 41.6951 20.9892 41.7603ZM51.26 46.6247C56.2891 48.3608 57.6705 54.6861 53.8175 58.3352C48.1578 63.6953 39.4634 56.9437 43.0021 49.9367C44.4363 47.0971 48.2258 45.5772 51.26 46.6247ZM20.5155 51.1701C18.9275 51.8155 18.7603 54.2316 20.2365 55.2023C20.9436 55.6673 31.1571 55.6317 31.7843 55.1619C33.2408 54.0712 33.2469 52.2134 31.7971 51.3263C31.3277 51.0393 30.9864 51.0216 26.0672 51.0304C23.1902 51.0356 20.6919 51.0984 20.5155 51.1701ZM46.1319 64.3383C48.3477 64.9332 50.6777 64.8747 52.7098 64.1732C53.198 64.0046 53.6218 63.8667 53.6513 63.8667C53.6807 63.8667 53.7049 65.7703 53.7049 68.0968C53.7049 70.4233 53.6674 72.3268 53.6217 72.3268C53.5758 72.3268 52.8205 71.8441 51.9431 71.2543C49.2851 69.4672 49.0504 69.4606 46.567 71.1026C45.6536 71.7067 44.8131 72.2369 44.6992 72.2808C44.5306 72.3456 44.4923 71.572 44.4923 68.0968C44.4923 64.1003 44.5095 63.8398 44.7656 63.939C44.9158 63.9972 45.5307 64.1768 46.1319 64.3383Z" fill="#4CC8AF"/>
</svg>
