<svg width="41" height="41" viewBox="0 0 41 41" fill="none" xmlns="http://www.w3.org/2000/svg">
<path d="M15.3181 41H6.83461C5.02196 41 3.28355 40.2801 2.00181 38.9986C0.720073 37.7171 0 35.979 0 34.1667V25.625C0 23.8127 0.720073 22.0746 2.00181 20.7931C3.28355 19.5116 5.02196 18.7917 6.83461 18.7917H21.9681C22.8929 18.7921 23.8018 19.0312 24.607 19.4858C25.4122 19.9404 26.0865 20.5951 26.5644 21.3866L32.0611 15.3477C32.5158 14.8478 33.0645 14.4424 33.676 14.1547C34.2874 13.8669 34.9496 13.7025 35.6246 13.6708C36.2997 13.639 36.9743 13.7406 37.6101 13.9697C38.2458 14.1988 38.8302 14.551 39.3297 15.006C40.3265 15.9215 40.9239 17.1918 40.9932 18.5433C41.0626 19.8948 40.5984 21.2195 39.7005 22.2323L28.0817 35.2788C26.4775 37.0777 24.5111 38.5173 22.3115 39.5033C20.1118 40.4892 17.7286 40.9993 15.3181 41ZM6.83461 22.2083C5.92828 22.2083 5.05908 22.5683 4.41821 23.2091C3.77734 23.8498 3.4173 24.7188 3.4173 25.625V34.1667C3.4173 35.0728 3.77734 35.9419 4.41821 36.5826C5.05908 37.2234 5.92828 37.5833 6.83461 37.5833H15.3181C17.2453 37.5826 19.1506 37.1746 20.9091 36.3862C22.6676 35.5978 24.2396 34.4467 25.5221 33.0084L37.1495 19.9602C37.4514 19.6202 37.6076 19.1753 37.5846 18.7212C37.5616 18.2672 37.3612 17.8404 37.0265 17.5326C36.6861 17.2267 36.2399 17.0655 35.7826 17.0833C35.5559 17.0929 35.3334 17.1476 35.128 17.2441C34.9226 17.3406 34.7386 17.477 34.5865 17.6454L27.024 25.9667C26.692 26.8854 26.1168 27.6967 25.3596 28.3141C24.6025 28.9314 23.6919 29.3317 22.7251 29.4722L13.9067 30.7329C13.4581 30.7973 13.0023 30.6808 12.6395 30.4091C12.2768 30.1374 12.0369 29.7328 11.9725 29.2843C11.9082 28.8357 12.0247 28.38 12.2964 28.0173C12.5681 27.6546 12.9728 27.4148 13.4215 27.3504L22.2415 26.0914C22.7311 26.0229 23.1765 25.7713 23.4876 25.3872C23.7988 25.0031 23.9525 24.5153 23.9178 24.0223C23.8831 23.5292 23.6625 23.0677 23.3006 22.731C22.9387 22.3943 22.4625 22.2075 21.9681 22.2083H6.83461ZM18.7952 15.5014C18.0207 15.5035 17.2689 15.2407 16.6645 14.7566C13.7393 12.4093 10.2519 8.88333 10.2519 5.46667C10.21 4.06304 10.7257 2.69993 11.6863 1.67547C12.6469 0.651017 13.9742 0.0486058 15.3779 0C16.6548 0.00497266 17.88 0.505355 18.7952 1.39571C19.7104 0.505355 20.9355 0.00497266 22.2125 0C23.6161 0.0486058 24.9434 0.651017 25.904 1.67547C26.8646 2.69993 27.3804 4.06304 27.3384 5.46667C27.3384 8.88333 23.8511 12.4093 20.9241 14.7583C20.32 15.2414 19.5688 15.5036 18.7952 15.5014ZM15.3779 3.41667C14.8812 3.46649 14.424 3.70917 14.1045 4.09252C13.785 4.47588 13.6287 4.9693 13.6692 5.46667C13.6692 7.00417 15.6359 9.54958 18.8054 12.0933C21.9545 9.54958 23.9211 7.00417 23.9211 5.46667C23.9617 4.9693 23.8054 4.47588 23.4858 4.09252C23.1663 3.70917 22.7091 3.46649 22.2125 3.41667C21.7159 3.46649 21.2586 3.70917 20.9391 4.09252C20.6196 4.47588 20.4633 4.9693 20.5038 5.46667C20.5038 5.91974 20.3238 6.35427 20.0034 6.67464C19.6829 6.99502 19.2483 7.175 18.7952 7.175C18.342 7.175 17.9074 6.99502 17.587 6.67464C17.2665 6.35427 17.0865 5.91974 17.0865 5.46667C17.1271 4.9693 16.9708 4.47588 16.6512 4.09252C16.3317 3.70917 15.8745 3.46649 15.3779 3.41667Z" fill="#ED5086"/>
</svg>
