<svg width="42" height="36" viewBox="0 0 42 36" fill="none" xmlns="http://www.w3.org/2000/svg">
<path d="M40.2501 22.2832H39.0829C38.6454 22.2832 38.2114 22.3158 37.7792 22.3809L25.4492 13.3243L28.4031 10.5546C29.1013 9.89983 29.1258 8.81318 28.4573 8.13102C27.7871 7.44715 26.6776 7.42487 25.9829 8.07789L18.6805 14.9252C18.3165 15.2817 17.8213 15.4651 17.3015 15.4222C16.7801 15.3811 16.3216 15.1223 16.0083 14.6938C15.5289 14.0425 15.6758 13.0227 16.3023 12.4074L24.5322 4.81623C26.0914 3.38164 28.5291 3.03028 30.4365 3.96782L34.4893 5.95258C35.6968 6.5439 37.0512 6.85584 38.4004 6.85584H40.2483C41.216 6.85584 41.9983 6.0897 41.9983 5.14188C41.9983 4.19406 41.216 3.42792 40.2483 3.42792H38.4004C37.5902 3.42792 36.7765 3.2411 36.052 2.88631L32.0027 0.901543C28.8108 -0.663302 24.7352 -0.08227 22.1313 2.3207L21.0499 3.31823L19.8249 2.22472C18.2167 0.790135 16.1343 0 13.8927 0C12.5435 0 11.1978 0.311941 9.99558 0.899829L5.94625 2.88459C5.22003 3.23938 4.40632 3.4262 3.5961 3.4262H1.75168C0.783967 3.4262 0.00174993 4.19234 0.00174993 5.14016C0.00174993 6.08798 0.783967 6.85412 1.75168 6.85412H3.5996C4.94879 6.85412 6.30324 6.54047 7.51244 5.95087L11.5653 3.9661C13.3537 3.08513 15.8666 3.32337 17.4695 4.75795L18.4967 5.67492L13.8664 9.94611C11.9888 11.7835 11.6895 14.6886 13.17 16.6957C14.0799 17.9349 15.8876 18.8536 17.4468 18.8536C18.8345 18.8536 20.1662 18.3188 21.1286 17.3744L22.889 15.7239L33.9941 23.8806C33.9398 23.9183 23.148 31.8436 23.148 31.8436C21.8828 32.8069 20.1172 32.8069 18.8257 31.8248L8.16691 23.9954C6.66372 22.8899 4.7983 22.2815 2.91713 22.2815H1.74993C0.782218 22.2815 0 23.0476 0 23.9954C0 24.9432 0.782218 25.7094 1.74993 25.7094H2.91713C4.04583 25.7094 5.16404 26.0745 6.067 26.7378L16.7013 34.55C17.97 35.5167 19.4907 36 21.0079 36C22.5163 36 24.023 35.5218 25.2724 34.5688L35.9348 26.7395C36.836 26.0762 37.9542 25.7111 39.0829 25.7111H40.2501C41.2178 25.7111 42 24.945 42 23.9971C42 23.0493 41.2178 22.2832 40.2501 22.2832Z" fill="#35C2A5"/>
</svg>
